<svg width="20" height="25" viewBox="0 0 20 25" fill="none" xmlns="http://www.w3.org/2000/svg">
<path d="M16.7045 12.7747C16.7166 11.8548 16.9669 10.9528 17.4321 10.1527C17.8972 9.35264 18.5621 8.68041 19.3648 8.19859C18.8548 7.48754 18.1821 6.90237 17.4 6.48957C16.6178 6.07676 15.7479 5.84769 14.8592 5.82055C12.9635 5.62628 11.1258 6.928 10.1598 6.928C9.17506 6.928 7.68776 5.83984 6.08616 5.872C5.05021 5.90468 4.04059 6.19879 3.15568 6.72567C2.27077 7.25255 1.54075 7.99424 1.03674 8.87847C-1.14648 12.5689 0.482005 17.9925 2.57338 20.9756C3.61975 22.4363 4.84264 24.0679 6.44279 24.0101C8.00863 23.9467 8.59344 23.0353 10.4835 23.0353C12.3561 23.0353 12.9048 24.0101 14.5374 23.9733C16.2176 23.9467 17.2762 22.5061 18.2859 21.0315C19.0377 19.9907 19.6162 18.8404 20 17.6232C19.0238 17.2201 18.1908 16.5454 17.6048 15.6832C17.0187 14.821 16.7056 13.8095 16.7045 12.7747Z" fill="white"/>
<path d="M13.6208 3.85885C14.5369 2.78514 14.9883 1.40507 14.879 0.0117188C13.4793 0.155238 12.1865 0.808315 11.258 1.84082C10.804 2.34523 10.4563 2.93205 10.2348 3.56772C10.0132 4.2034 9.92219 4.87547 9.96686 5.54552C10.6669 5.55256 11.3595 5.40442 11.9924 5.11226C12.6253 4.8201 13.1821 4.39153 13.6208 3.85885Z" fill="white"/>
</svg>
