<svg width="25" height="24" viewBox="0 0 25 24" fill="none" xmlns="http://www.w3.org/2000/svg">
<path d="M6.50569 16.3301C6.18929 16.6465 6.17422 17.2115 6.51323 17.543C6.8447 17.8745 7.40971 17.867 7.72612 17.5505L12.3366 12.9325L16.9546 17.5505C17.2786 17.8745 17.8361 17.8745 18.1675 17.543C18.4915 17.204 18.499 16.6541 18.1675 16.3301L13.557 11.7121L18.1675 7.10161C18.499 6.77767 18.499 6.22019 18.1675 5.88871C17.8285 5.56478 17.2786 5.55724 16.9546 5.88118L12.3366 10.4992L7.72612 5.88118C7.40971 5.56478 6.83717 5.54971 6.51323 5.88871C6.18175 6.22019 6.18929 6.7852 6.50569 7.10161L11.1237 11.7121L6.50569 16.3301Z" fill="#05182E"/>
</svg>
