<svg width="24" height="25" viewBox="0 0 24 25" fill="none" xmlns="http://www.w3.org/2000/svg">
<g clip-path="url(#clip0_4127_479)">
<path d="M23.5 12.0816C23.5 5.73032 18.3513 0.581598 12 0.581598C5.64872 0.581598 0.5 5.73032 0.5 12.0816C0.5 17.8216 4.70538 22.5792 10.2031 23.4419V15.4058H7.2832V12.0816H10.2031V9.54801C10.2031 6.66582 11.92 5.07379 14.5468 5.07379C15.805 5.07379 17.1211 5.2984 17.1211 5.2984V8.12847H15.671C14.2424 8.12847 13.7969 9.01494 13.7969 9.92438V12.0816H16.9863L16.4765 15.4058H13.7969V23.4419C19.2946 22.5792 23.5 17.8216 23.5 12.0816Z" fill="white"/>
</g>
<defs>
<clipPath id="clip0_4127_479">
<rect width="24" height="24" fill="white" transform="translate(0 0.0117188)"/>
</clipPath>
</defs>
</svg>
