<svg width="449" height="426" viewBox="0 0 449 426" fill="none" xmlns="http://www.w3.org/2000/svg">
<path d="M38.3034 256.45L46.5582 251.264C46.5582 251.264 50.5663 230.603 47.5889 212.368C43.409 186.642 25.3915 177.798 18.8449 180.335C12.2983 182.873 10.7523 190.522 22.5763 205.339C29.5523 214.1 38.5229 232.612 38.3034 256.45Z" fill="#6FA521"/>
<g opacity="0.3">
<path d="M38.3034 256.45L46.5582 251.264C46.5582 251.264 50.5663 230.603 47.5889 212.368C43.409 186.642 25.3915 177.798 18.8449 180.335C12.2983 182.873 10.7523 190.522 22.5763 205.339C29.5523 214.1 38.5229 232.612 38.3034 256.45Z" fill="white"/>
</g>
<path d="M41.3094 246.254H41.2235C41.0688 246.231 40.9295 246.151 40.835 246.03C40.7406 245.909 40.6985 245.757 40.7177 245.606C44.1437 221.528 34.1806 195.208 22.977 184.586C22.8643 184.479 22.8 184.334 22.7983 184.181C22.7965 184.028 22.8573 183.881 22.9674 183.771C23.0775 183.662 23.2278 183.6 23.3853 183.598C23.5428 183.596 23.6946 183.655 23.8072 183.762C35.2113 194.569 45.3652 221.324 41.8915 245.754C41.8731 245.892 41.804 246.018 41.697 246.11C41.5899 246.202 41.4523 246.253 41.3094 246.254Z" fill="white"/>
<path d="M17.5183 269.48C16.2777 270.165 12.7467 267.526 11.7924 266.887C10.1163 265.778 8.76235 264.269 7.86064 262.506C6.85445 260.495 6.52081 258.228 6.90632 256.024C7.10483 254.861 7.38543 253.713 7.74612 252.588C8.08013 251.477 8.40459 250.365 8.70043 249.254C9.10183 248.178 9.27075 247.034 9.19668 245.892C8.90084 243.614 6.81089 242.021 4.92134 240.641C2.82185 239.123 0.646006 237.113 0.655549 234.372C0.805987 232.243 1.68228 230.223 3.14631 228.63C4.50144 226.963 6.10469 225.5 7.32622 223.74C8.28787 222.52 8.7897 221.016 8.74815 219.48C8.61668 218.541 8.29215 217.638 7.79383 216.823C6.83952 215.035 5.48439 213.396 4.79728 211.479C4.11017 209.562 4.2056 207.173 5.7516 205.802C7.01129 204.672 8.90084 204.515 10.6091 204.626C12.2147 204.817 13.7583 205.344 15.1325 206.173C19.6178 208.59 22.1849 213.748 26.947 215.609C28.8239 216.183 30.7363 216.641 32.6729 216.98C34.5815 217.471 36.5378 218.425 37.4444 220.138C39.1908 223.527 35.9462 227.704 37.1772 231.297C38.2651 234.483 41.4526 235.696 43.2371 238.567C43.9666 239.834 44.2607 241.294 44.0769 242.734C43.9212 245.168 43.3066 247.554 42.2637 249.773C41.0863 252.075 39.7636 254.305 38.3033 256.45L17.5183 269.48Z" fill="#6FA521"/>
<g opacity="0.65">
<path d="M17.5183 269.48C16.2777 270.165 12.7467 267.526 11.7924 266.887C10.1163 265.778 8.76235 264.269 7.86064 262.506C6.85445 260.495 6.52081 258.228 6.90632 256.024C7.10483 254.861 7.38543 253.713 7.74612 252.588C8.08013 251.477 8.40459 250.365 8.70043 249.254C9.10183 248.178 9.27075 247.034 9.19668 245.892C8.90084 243.614 6.81089 242.021 4.92134 240.641C2.82185 239.123 0.646006 237.113 0.655549 234.372C0.805987 232.243 1.68228 230.223 3.14631 228.63C4.50144 226.963 6.10469 225.5 7.32622 223.74C8.28787 222.52 8.7897 221.016 8.74815 219.48C8.61668 218.541 8.29215 217.638 7.79383 216.823C6.83952 215.035 5.48439 213.396 4.79728 211.479C4.11017 209.562 4.2056 207.173 5.7516 205.802C7.01129 204.672 8.90084 204.515 10.6091 204.626C12.2147 204.817 13.7583 205.344 15.1325 206.173C19.6178 208.59 22.1849 213.748 26.947 215.609C28.8239 216.183 30.7363 216.641 32.6729 216.98C34.5815 217.471 36.5378 218.425 37.4444 220.138C39.1908 223.527 35.9462 227.704 37.1772 231.297C38.2651 234.483 41.4526 235.696 43.2371 238.567C43.9666 239.834 44.2607 241.294 44.0769 242.734C43.9212 245.168 43.3066 247.554 42.2637 249.773C41.0863 252.075 39.7636 254.305 38.3033 256.45L17.5183 269.48Z" fill="white"/>
</g>
<path d="M29.5045 262.664C29.431 262.662 29.3587 262.645 29.2918 262.615C29.225 262.586 29.1649 262.543 29.1151 262.491C29.0654 262.438 29.0269 262.376 29.002 262.309C28.9771 262.242 28.9663 262.171 28.9701 262.099C29.9244 240.577 19.427 216.805 11.7924 209.905C11.6995 209.804 11.649 209.672 11.6507 209.536C11.6523 209.4 11.7061 209.27 11.8014 209.171C11.8968 209.071 12.0269 209.01 12.1664 208.998C12.3058 208.987 12.4447 209.026 12.5559 209.109C20.3049 216.156 30.9742 240.318 30.0389 262.146C30.032 262.281 29.9735 262.409 29.8747 262.505C29.776 262.601 29.644 262.657 29.5045 262.664Z" fill="white"/>
<path d="M25.8972 236.354H25.735C20.4916 234.946 15.1065 234.092 9.67385 233.807C9.60031 233.805 9.52799 233.788 9.46113 233.758C9.39426 233.729 9.3342 233.686 9.28444 233.634C9.23468 233.581 9.19622 233.519 9.17132 233.452C9.14642 233.385 9.13558 233.314 9.13943 233.242C9.14054 233.171 9.15673 233.1 9.187 233.034C9.21726 232.969 9.26098 232.91 9.31546 232.861C9.36995 232.813 9.43406 232.776 9.50389 232.752C9.57371 232.728 9.64778 232.719 9.72156 232.724C15.2627 233.004 20.7564 233.864 26.1072 235.289C26.2472 235.336 26.3631 235.433 26.4307 235.561C26.4983 235.688 26.5123 235.837 26.4698 235.974C26.4317 236.09 26.3547 236.191 26.2509 236.26C26.1471 236.329 26.0226 236.362 25.8972 236.354Z" fill="white"/>
<path d="M227.907 426.006C349.651 426.006 448.344 370.712 448.344 302.504C448.344 234.295 349.651 179.001 227.907 179.001C106.163 179.001 7.46936 234.295 7.46936 302.504C7.46936 370.712 106.163 426.006 227.907 426.006Z" fill="#F0F0F0"/>
<path d="M110.755 249.856C157.45 223.704 233.146 223.704 279.831 249.856C319.407 272.027 325.419 305.875 297.906 331.611L400.638 388.435C406.898 391.945 406.898 397.631 400.638 401.141L391.4 406.318C385.14 409.828 375.177 409.55 369.107 405.707L279.402 344.826C232.64 370.756 157.326 370.655 110.793 344.585C64.0698 318.423 64.0698 276.018 110.755 249.856Z" fill="#E6E6E6"/>
<path d="M129.679 19.9006L121.586 24.4384C121.627 24.094 121.65 23.7478 121.653 23.4011V21.123C121.653 17.0667 118.723 15.4276 115.107 17.4187C113.548 18.3416 112.216 19.5837 111.203 21.0582C110.602 15.9647 106.489 14.0662 101.479 16.863C96.068 19.9006 91.6877 27.2722 91.6877 33.338V36.7367C91.6501 38.099 91.9341 39.4517 92.5179 40.6911L85.8377 44.4603C84.7732 45.1304 83.8882 46.0367 83.256 47.1043C82.6238 48.1719 82.2624 49.3702 82.2018 50.6002C82.2018 52.8506 83.8241 53.7581 85.8377 52.6376L129.736 28.0408C130.796 27.3743 131.678 26.4739 132.31 25.4131C132.941 24.3524 133.306 23.1615 133.372 21.9379C133.315 19.6876 131.693 18.78 129.679 19.9006Z" fill="#EBEBEB"/>
<path d="M22.9388 40.3299L27.5004 36.9127V27.1518C27.5004 19.4098 33.8657 10.4268 40.7654 6.565C47.6746 2.69397 53.2765 5.83339 53.2765 13.5662V14.9831C54.7328 12.6937 56.7195 10.7657 59.0787 9.35251C64.0507 6.57426 68.0779 8.82464 68.0779 14.3904V15.0386L74.4432 11.4732C77.7165 9.62107 80.3695 11.1213 80.3695 14.7886C80.2584 16.7847 79.6639 18.7272 78.6342 20.4586C77.6045 22.1899 76.1687 23.6613 74.4432 24.7533L22.9388 53.61C19.6655 55.4621 17.0125 53.9526 17.0125 50.2853C17.1235 48.2905 17.7181 46.3493 18.7479 44.6194C19.7776 42.8895 21.2135 41.4199 22.9388 40.3299Z" fill="#EBEBEB"/>
<path d="M90.6285 266.878V295.058C90.6285 310.357 101.05 325.619 121.882 337.334C163.548 360.68 231.113 360.68 272.779 337.334C293.612 325.656 304.033 310.357 304.033 295.058V266.878C304.033 251.579 293.612 236.317 272.779 224.611C231.113 201.265 163.548 201.265 121.882 224.611C101.05 236.28 90.6285 251.579 90.6285 266.878ZM293.707 266.878C293.707 279.12 284.441 291.048 267.616 300.476C249.007 310.904 224.051 316.645 197.331 316.645C170.61 316.645 145.654 310.904 127.045 300.476C110.221 291.048 100.954 279.12 100.954 266.878C100.954 254.635 110.221 242.707 127.045 233.279C145.654 222.852 170.61 217.11 197.331 217.11C224.051 217.11 249.016 222.852 267.616 233.279C284.45 242.707 293.707 254.663 293.707 266.878Z" fill="#6FA521"/>
<path opacity="0.2" d="M90.6285 266.878V295.058C90.6285 310.357 101.05 325.619 121.882 337.334C163.548 360.68 231.113 360.68 272.779 337.334C293.612 325.656 304.033 310.357 304.033 295.058V266.878C304.033 251.579 293.612 236.317 272.779 224.611C231.113 201.265 163.548 201.265 121.882 224.611C101.05 236.28 90.6285 251.579 90.6285 266.878ZM293.707 266.878C293.707 279.12 284.441 291.048 267.616 300.476C249.007 310.904 224.051 316.645 197.331 316.645C170.61 316.645 145.654 310.904 127.045 300.476C110.221 291.048 100.954 279.12 100.954 266.878C100.954 254.635 110.221 242.707 127.045 233.279C145.654 222.852 170.61 217.11 197.331 217.11C224.051 217.11 249.016 222.852 267.616 233.279C284.45 242.707 293.707 254.663 293.707 266.878Z" fill="white"/>
<path opacity="0.6" d="M303.928 297.688C302.267 307.384 297.868 314.682 280.146 328.101C255.095 347.085 191.662 354.837 154.844 343.048C120.117 331.935 109.037 310.181 109.037 295.262L109.133 286.492C103.769 280.296 100.945 273.638 100.945 266.877C100.945 259.95 103.913 253.125 109.534 246.8L109.658 234.446H107.682C96.3163 244.29 90.6285 255.579 90.6285 266.859V295.04C90.6285 310.338 101.05 325.6 121.882 337.315C163.548 360.662 231.113 360.662 272.779 337.315C292.419 326.332 302.802 312.079 303.928 297.688Z" fill="#6FA521"/>
<path d="M272.788 224.611C231.113 201.265 163.557 201.265 121.892 224.611C80.2265 247.958 80.217 285.807 121.892 309.153C163.567 332.5 231.113 332.5 272.788 309.153C314.463 285.807 314.454 247.958 272.788 224.611ZM267.626 300.476C249.016 310.904 224.051 316.645 197.34 316.645C170.629 316.645 145.664 310.904 127.045 300.476C110.221 291.048 100.954 279.12 100.954 266.878C100.954 254.635 110.221 242.707 127.045 233.279C145.654 222.852 170.619 217.11 197.34 217.11C224.061 217.11 249.016 222.852 267.626 233.279C284.45 242.707 293.717 254.644 293.717 266.878C293.717 279.111 284.45 291.048 267.626 300.476Z" fill="#6FA521"/>
<path opacity="0.5" d="M272.788 224.611C231.113 201.265 163.557 201.265 121.892 224.611C80.2265 247.958 80.217 285.807 121.892 309.153C163.567 332.5 231.113 332.5 272.788 309.153C314.463 285.807 314.454 247.958 272.788 224.611ZM267.626 300.476C249.016 310.904 224.051 316.645 197.34 316.645C170.629 316.645 145.664 310.904 127.045 300.476C110.221 291.048 100.954 279.12 100.954 266.878C100.954 254.635 110.221 242.707 127.045 233.279C145.654 222.852 170.619 217.11 197.34 217.11C224.061 217.11 249.016 222.852 267.626 233.279C284.45 242.707 293.717 254.644 293.717 266.878C293.717 279.111 284.45 291.048 267.626 300.476Z" fill="white"/>
<path d="M293.726 266.878C293.665 271.854 292.224 276.722 289.556 280.972C285.328 273.869 277.875 267.202 267.606 261.469C249.016 251.032 224.042 245.291 197.321 245.291C170.6 245.291 145.645 251.032 127.045 261.469C116.786 267.202 109.343 273.869 105.096 280.972C102.449 276.715 101.019 271.85 100.954 266.878C100.954 254.644 110.221 242.707 127.055 233.27C145.654 222.861 170.619 217.11 197.331 217.11C224.042 217.11 249.026 222.861 267.616 233.27C284.46 242.707 293.726 254.662 293.726 266.878Z" fill="#6FA521"/>
<path opacity="0.3" d="M293.726 266.878C293.665 271.854 292.224 276.722 289.556 280.972C285.328 273.869 277.875 267.202 267.606 261.469C249.016 251.032 224.042 245.291 197.321 245.291C170.6 245.291 145.645 251.032 127.045 261.469C116.786 267.202 109.343 273.869 105.096 280.972C102.449 276.715 101.019 271.85 100.954 266.878C100.954 254.644 110.221 242.707 127.055 233.27C145.654 222.861 170.619 217.11 197.331 217.11C224.042 217.11 249.026 222.861 267.616 233.27C284.46 242.707 293.726 254.662 293.726 266.878Z" fill="white"/>
<path opacity="0.6" d="M127.055 233.27C110.221 242.707 100.954 254.644 100.954 266.878C101.022 271.851 102.455 276.716 105.105 280.973C109.362 273.87 116.805 267.202 127.055 261.469C131.389 259.064 135.892 256.956 140.53 255.163C136.464 256.691 123.982 260.59 128.534 249.041C133.945 235.326 160.351 220.472 179.752 218.008C159.797 219.925 141.503 225.185 127.055 233.27Z" fill="#6FA521"/>
<path opacity="0.4" d="M267.626 246.04C249.016 235.613 224.052 229.871 197.34 229.871C170.629 229.871 145.655 235.613 127.045 246.04C113.17 253.82 104.447 263.303 101.813 273.258C104.447 283.213 113.17 292.706 127.045 300.476C145.664 310.903 170.619 316.645 197.34 316.645C224.061 316.645 249.016 310.903 267.626 300.476C281.511 292.696 290.233 283.213 292.858 273.258C290.243 263.303 281.511 253.82 267.626 246.04Z" fill="white"/>
<path d="M119.917 279.722C125.881 284.26 132.647 287.131 139.547 289.409C146.465 291.632 153.552 293.329 160.742 294.484C175.11 296.748 189.681 297.555 204.221 296.892C211.483 296.577 218.755 295.92 225.979 294.975C233.18 294.036 240.316 292.672 247.346 290.891C254.342 289.192 261.11 286.706 267.511 283.482C269.091 282.665 270.621 281.759 272.092 280.769C273.569 279.791 274.969 278.707 276.281 277.528C277.604 276.342 278.786 275.016 279.803 273.573C280.855 272.092 281.657 270.457 282.179 268.73C282.21 270.623 281.887 272.505 281.225 274.286C280.524 276.076 279.608 277.78 278.495 279.361C277.395 280.954 276.143 282.442 274.754 283.806C273.38 285.176 271.917 286.46 270.374 287.65C264.155 292.25 257.262 295.921 249.923 298.54C242.687 301.186 235.224 303.203 227.621 304.569C220.058 305.958 212.405 306.84 204.717 307.208C189.286 307.991 173.825 306.394 158.91 302.476C151.449 300.492 144.242 297.696 137.428 294.141C134.035 292.336 130.81 290.248 127.79 287.9C127.036 287.316 126.329 286.677 125.604 286.047C124.879 285.418 124.192 284.779 123.533 284.103C122.204 282.743 120.994 281.278 119.917 279.722Z" fill="white"/>
<path d="M269.611 327.091C269.739 324.573 270.478 322.12 271.768 319.931C273.059 317.742 274.863 315.88 277.035 314.497C279.077 313.339 280.938 313.219 282.293 313.959L306.075 327.156C307.421 327.906 308.26 329.527 308.27 331.787C308.139 334.304 307.399 336.757 306.109 338.945C304.819 341.133 303.016 342.996 300.845 344.381C298.784 345.548 296.914 345.669 295.558 344.909L271.786 331.722C270.469 331.036 269.62 329.416 269.611 327.091Z" fill="#37474F"/>
<path d="M271.834 331.787C270.469 331.037 269.62 329.416 269.611 327.092C269.645 325.217 270.077 323.37 270.88 321.665L305.054 340.668C303.942 342.185 302.527 343.47 300.893 344.446C298.832 345.613 296.961 345.734 295.606 344.974L271.834 331.787Z" fill="#263238"/>
<path d="M387.049 364.69L311.371 327.267L311.276 327.212C309.52 326.286 307.134 326.452 304.51 327.934C299.147 330.972 294.824 338.306 294.852 344.326C294.852 347.345 295.969 349.456 297.715 350.438L368.84 394.89C370.887 396.147 373.173 396.991 375.563 397.372C377.953 397.753 380.397 397.663 382.751 397.107C385.104 396.552 387.318 395.542 389.26 394.138C391.203 392.734 392.834 390.965 394.056 388.936C395.279 386.907 396.068 384.66 396.376 382.329C396.685 379.998 396.506 377.631 395.851 375.368C395.196 373.105 394.079 370.994 392.565 369.159C391.051 367.325 389.171 365.805 387.039 364.69H387.049Z" fill="#455A64"/>
<path d="M297.725 350.457L368.85 394.909C371.494 396.52 374.524 397.436 377.643 397.568C380.762 397.7 383.863 397.044 386.642 395.663C389.421 394.282 391.783 392.224 393.495 389.691C395.207 387.157 396.212 384.236 396.411 381.212C395.046 386.963 385.255 391.853 373.116 385.268C360.977 378.684 316.009 351.096 295.577 339.677C295.098 341.177 294.847 342.737 294.833 344.308C294.843 347.364 295.969 349.475 297.725 350.457Z" fill="#37474F"/>
<path d="M297.725 350.456C295.95 349.475 294.862 347.363 294.862 344.344C294.862 338.325 299.156 330.99 304.519 327.952C307.144 326.471 309.53 326.313 311.286 327.23L317.966 330.527C316.162 329.601 313.729 329.749 311.028 331.268C305.531 334.379 301.093 341.909 301.122 348.085C301.122 351.179 302.22 353.392 304.033 354.392" fill="#6FA521"/>
<path opacity="0.2" d="M304.023 354.393C302.21 353.393 301.16 351.179 301.113 348.086C301.123 346.45 301.383 344.824 301.886 343.261C299.605 341.946 297.477 340.742 295.577 339.677C295.337 340.452 295.149 341.24 295.014 342.039C294.957 342.428 294.909 342.817 294.871 343.206C294.871 343.595 294.824 343.974 294.871 344.345C294.871 347.364 295.988 349.475 297.734 350.457L304.023 354.393Z" fill="black"/>
<path d="M116.758 393.353L59.4987 365.562L36.6906 375.359L116.758 393.353Z" fill="#6FA521"/>
<g opacity="0.15">
<path d="M116.758 393.353L59.4987 365.562L36.6906 375.359L116.758 393.353Z" fill="white"/>
</g>
<path d="M116.758 393.353L66.322 360.635L75.3499 348.04L116.758 393.353Z" fill="#6FA521"/>
<g opacity="0.15">
<path d="M116.758 393.353L66.322 360.635L75.3499 348.04L116.758 393.353Z" fill="white"/>
</g>
<path d="M66.322 360.635L67.2668 369.33L116.758 393.353L66.322 360.635Z" fill="#6FA521"/>
<g opacity="0.2">
<path d="M66.322 360.635L67.2668 369.33L116.758 393.353L66.322 360.635Z" fill="black"/>
</g>
<path d="M58.1532 358.968C58.2918 358.965 58.4243 358.912 58.5254 358.82C58.6422 358.708 58.7126 358.559 58.7231 358.4C58.7337 358.241 58.6837 358.084 58.5826 357.959L57.4852 356.532C57.4407 356.472 57.3834 356.422 57.3173 356.385C57.2511 356.348 57.1776 356.326 57.1017 356.318C57.0257 356.311 56.9491 356.32 56.877 356.344C56.8049 356.369 56.7389 356.407 56.6835 356.458C56.5671 356.57 56.4962 356.718 56.484 356.877C56.4717 357.035 56.5188 357.192 56.6167 357.32C56.9794 357.792 57.3515 358.246 57.7237 358.718C57.7706 358.789 57.8337 358.848 57.9082 358.892C57.9827 358.935 58.0666 358.961 58.1532 358.968Z" fill="#455A64"/>
<path d="M53.1238 352.652C52.4431 351.688 51.7846 350.716 51.1484 349.734C51.0623 349.6 51.0294 349.439 51.0557 349.282C51.082 349.126 51.1658 348.984 51.2916 348.882C51.3509 348.837 51.4198 348.804 51.4934 348.787C51.567 348.769 51.6436 348.768 51.718 348.782C51.7923 348.796 51.8626 348.825 51.9241 348.868C51.9856 348.911 52.0368 348.967 52.0741 349.031C52.7135 350.003 53.3624 350.966 53.9827 351.92C54.0762 352.05 54.1162 352.21 54.0951 352.367C54.0739 352.525 53.993 352.669 53.8682 352.772C53.7756 352.85 53.6569 352.893 53.5342 352.892C53.4518 352.884 53.3722 352.858 53.3013 352.817C53.2303 352.775 53.1698 352.719 53.1238 352.652ZM48.0755 344.697C47.4934 343.669 46.9208 342.622 46.3768 341.576C46.3021 341.435 46.2831 341.272 46.3236 341.119C46.364 340.965 46.4611 340.831 46.5963 340.742C46.662 340.703 46.7357 340.678 46.8122 340.669C46.8888 340.66 46.9665 340.667 47.0399 340.69C47.1134 340.713 47.1808 340.751 47.2377 340.801C47.2945 340.852 47.3395 340.914 47.3693 340.983C47.9037 342.011 48.4668 343.039 49.0394 344.058C49.1207 344.195 49.1471 344.357 49.1137 344.512C49.0803 344.668 48.9893 344.806 48.8581 344.9C48.7689 344.953 48.6668 344.982 48.5622 344.984C48.4621 344.982 48.3642 344.955 48.2787 344.904C48.1931 344.854 48.123 344.782 48.0755 344.697ZM43.8193 336.214C43.3421 335.112 42.8649 334 42.4641 332.898C42.4056 332.752 42.4043 332.59 42.4606 332.444C42.5169 332.297 42.6269 332.175 42.7695 332.102C42.8406 332.073 42.9172 332.058 42.9944 332.059C43.0716 332.06 43.1477 332.077 43.2178 332.109C43.2879 332.14 43.3504 332.185 43.4014 332.242C43.4524 332.298 43.4907 332.364 43.5139 332.435C43.9242 333.519 44.3728 334.612 44.8499 335.695C44.9141 335.84 44.9213 336.003 44.8704 336.153C44.8194 336.303 44.7137 336.43 44.5732 336.51C44.499 336.546 44.4174 336.565 44.3346 336.566C44.2226 336.562 44.1142 336.527 44.0226 336.465C43.931 336.402 43.8603 336.315 43.8193 336.214ZM40.5173 327.249C40.1738 326.092 39.8493 324.915 39.563 323.776C39.5174 323.625 39.5337 323.463 39.6083 323.323C39.683 323.184 39.8103 323.077 39.9638 323.026C40.0385 323.007 40.1164 323.003 40.1928 323.014C40.2691 323.026 40.3422 323.052 40.4076 323.092C40.4729 323.132 40.5291 323.185 40.5726 323.247C40.6161 323.309 40.646 323.379 40.6605 323.452C40.9372 324.582 41.2522 325.73 41.6148 326.869C41.6634 327.018 41.6532 327.18 41.5861 327.322C41.5191 327.464 41.4001 327.576 41.2522 327.638H41.0804C40.956 327.64 40.8343 327.604 40.7329 327.534C40.6316 327.464 40.5561 327.364 40.5173 327.249ZM38.3033 317.886C38.1125 316.71 37.9407 315.506 37.7975 314.312C37.7696 314.158 37.805 314.001 37.8961 313.872C37.9872 313.744 38.1266 313.656 38.2842 313.627C38.4407 313.616 38.5951 313.666 38.7146 313.764C38.834 313.863 38.909 314.003 38.9236 314.154C39.0572 315.33 39.229 316.516 39.4199 317.674C39.452 317.824 39.4234 317.981 39.34 318.112C39.2566 318.243 39.1247 318.338 38.9713 318.377H38.8664C38.7288 318.37 38.5978 318.318 38.4953 318.229C38.3928 318.139 38.325 318.019 38.3033 317.886ZM37.349 308.292C37.349 307.366 37.2917 306.44 37.2917 305.449V304.671C37.2879 304.596 37.2994 304.52 37.3256 304.449C37.3519 304.378 37.3923 304.313 37.4446 304.257C37.4969 304.201 37.56 304.156 37.6304 304.124C37.7008 304.091 37.7771 304.073 37.8548 304.069C38.0127 304.081 38.1593 304.153 38.263 304.269C38.3666 304.385 38.4188 304.536 38.4083 304.69V305.449C38.4083 306.375 38.4083 307.301 38.4083 308.227C38.4217 308.382 38.3722 308.535 38.2705 308.655C38.1689 308.774 38.0231 308.85 37.8643 308.866C37.721 308.848 37.5894 308.78 37.4945 308.674C37.3995 308.568 37.3478 308.433 37.349 308.292ZM38.1029 299.319C37.9467 299.291 37.8072 299.207 37.7131 299.083C37.619 298.959 37.5775 298.805 37.5971 298.652C37.7021 297.457 37.8357 296.244 37.9884 295.049C37.9942 294.974 38.0159 294.9 38.0522 294.833C38.0884 294.765 38.1385 294.706 38.1993 294.658C38.2601 294.611 38.3304 294.576 38.4057 294.555C38.481 294.535 38.5599 294.53 38.6373 294.54C38.7932 294.571 38.9303 294.66 39.0194 294.788C39.1086 294.916 39.1427 295.073 39.1145 295.225C38.9618 296.401 38.8282 297.596 38.7232 298.763C38.7164 298.907 38.6552 299.043 38.5513 299.145C38.4474 299.248 38.3081 299.31 38.1602 299.319H38.1029ZM39.439 289.854C39.2861 289.807 39.1576 289.705 39.0796 289.569C39.0016 289.433 38.9799 289.273 39.0191 289.122C39.2672 287.946 39.5535 286.77 39.8684 285.613C39.8827 285.539 39.9126 285.469 39.9562 285.408C39.9999 285.346 40.0563 285.294 40.1219 285.255C40.1874 285.216 40.2607 285.19 40.337 285.18C40.4133 285.17 40.491 285.175 40.565 285.196C40.7161 285.252 40.84 285.361 40.9124 285.502C40.9848 285.642 41.0004 285.804 40.9563 285.955C40.6509 287.085 40.3646 288.252 40.1165 289.4C40.0966 289.528 40.0314 289.645 39.9321 289.731C39.8329 289.818 39.7057 289.867 39.5726 289.872L39.439 289.854ZM42.0156 280.695C41.8704 280.627 41.7573 280.507 41.6989 280.361C41.6405 280.215 41.6411 280.053 41.7007 279.908C42.111 278.797 42.5691 277.676 43.0463 276.583C43.0732 276.514 43.1147 276.451 43.1681 276.398C43.2214 276.344 43.2856 276.303 43.3564 276.275C43.4272 276.247 43.5032 276.234 43.5796 276.236C43.6559 276.238 43.7311 276.255 43.8002 276.287C43.9392 276.368 44.0436 276.495 44.0944 276.645C44.1452 276.794 44.139 276.956 44.0769 277.102C43.5998 278.176 43.1226 279.269 42.7504 280.362C42.7146 280.47 42.6448 280.565 42.5507 280.633C42.4566 280.701 42.3429 280.739 42.2256 280.741C42.1526 280.744 42.0803 280.728 42.0156 280.695ZM45.9378 272.092C45.8034 272 45.7086 271.863 45.6716 271.708C45.6347 271.552 45.6581 271.389 45.7374 271.249C46.3196 270.221 46.9303 269.193 47.5506 268.202C47.5873 268.137 47.6381 268.079 47.6997 268.034C47.7612 267.99 47.832 267.958 47.9073 267.942C47.9825 267.927 48.0603 267.927 48.1355 267.943C48.2106 267.959 48.2813 267.99 48.3427 268.035C48.4683 268.137 48.5527 268.278 48.5807 268.434C48.6087 268.59 48.5784 268.751 48.4954 268.887C47.8751 269.86 47.2739 270.869 46.7108 271.879C46.6654 271.967 46.596 272.041 46.5102 272.093C46.4244 272.145 46.3254 272.174 46.2241 272.175C46.1224 272.175 46.0229 272.146 45.9378 272.092ZM51.0053 264.229C50.8896 264.119 50.819 263.972 50.8067 263.815C50.7945 263.659 50.8413 263.503 50.9385 263.377C51.6542 262.451 52.4081 261.525 53.162 260.655C53.2113 260.598 53.2727 260.553 53.3419 260.521C53.4111 260.49 53.4865 260.474 53.5628 260.474C53.6391 260.474 53.7145 260.49 53.7838 260.521C53.853 260.553 53.9144 260.598 53.9636 260.655C54.0723 260.773 54.1323 260.926 54.1323 261.085C54.1323 261.244 54.0723 261.397 53.9636 261.516C53.2193 262.377 52.4845 263.266 51.7783 264.183C51.7284 264.251 51.6627 264.307 51.5863 264.345C51.51 264.384 51.4254 264.405 51.3393 264.405C51.2664 264.404 51.1948 264.387 51.129 264.357C51.0632 264.327 51.0047 264.283 50.9576 264.229H51.0053ZM57.1415 257.302C57.0328 257.184 56.9728 257.03 56.9728 256.872C56.9728 256.713 57.0328 256.56 57.1415 256.441C57.9813 255.635 58.8497 254.848 59.7182 254.107C59.7754 254.058 59.843 254.021 59.9163 253.999C59.9896 253.977 60.0669 253.971 60.143 253.98C60.219 253.99 60.292 254.015 60.3571 254.055C60.4221 254.094 60.4776 254.147 60.5198 254.209C60.6122 254.34 60.6533 254.499 60.6358 254.657C60.6183 254.815 60.5433 254.961 60.4244 255.07C59.5655 255.793 58.7161 256.561 57.8859 257.348C57.788 257.446 57.6543 257.503 57.5137 257.506C57.4325 257.505 57.3526 257.486 57.2799 257.45C57.2073 257.415 57.1437 257.364 57.0938 257.302H57.1415ZM64.1653 251.44C64.087 251.303 64.0612 251.142 64.0927 250.988C64.1241 250.834 64.2107 250.696 64.3371 250.597C65.2914 249.931 66.2457 249.31 67.2 248.745C67.2653 248.708 67.3382 248.684 67.4137 248.676C67.4892 248.668 67.5656 248.675 67.6379 248.698C67.7101 248.721 67.7765 248.758 67.8327 248.808C67.8888 248.858 67.9334 248.918 67.9635 248.986C68.0376 249.126 68.0562 249.287 68.0157 249.439C67.9753 249.591 67.8785 249.723 67.744 249.81C66.7896 250.366 65.8353 250.977 64.881 251.662C64.7916 251.723 64.6849 251.756 64.5756 251.755C64.4781 251.744 64.385 251.71 64.3049 251.655C64.2248 251.6 64.1604 251.526 64.1176 251.44H64.1653Z" fill="#455A64"/>
<path d="M72.5634 247.44H72.7351C73.2392 247.254 73.76 247.115 74.2907 247.023C74.4473 246.99 74.5845 246.898 74.6735 246.769C74.7624 246.639 74.7962 246.482 74.7678 246.328C74.7619 246.253 74.7405 246.18 74.7049 246.113C74.6693 246.046 74.6203 245.987 74.5607 245.938C74.5012 245.89 74.4322 245.854 74.358 245.832C74.2837 245.81 74.2057 245.802 74.1284 245.81C73.5372 245.917 72.9563 246.072 72.3916 246.273C72.2405 246.331 72.1179 246.443 72.0487 246.586C71.9796 246.728 71.9691 246.891 72.0194 247.041C72.0555 247.155 72.1274 247.254 72.2251 247.326C72.3227 247.397 72.4411 247.437 72.5634 247.44Z" fill="#455A64"/>
<path d="M340.535 34.3939L281.845 16.9373L327.06 47.0812L340.535 34.3939Z" fill="#6FA521"/>
<path opacity="0.15" d="M340.535 34.3939L281.845 16.9373L327.06 47.0812L340.535 34.3939Z" fill="white"/>
<path d="M281.845 16.9376L345.011 26.8004L358.486 14.113L281.845 16.9376Z" fill="#6FA521"/>
<path opacity="0.15" d="M281.845 16.9376L345.011 26.8004L358.486 14.113L281.845 16.9376Z" fill="white"/>
<path d="M345.011 26.8L345.068 41.9507L340.535 34.3939L281.845 16.9373L345.011 26.8Z" fill="#6FA521"/>
<path opacity="0.2" d="M345.011 26.8L345.068 41.9507L340.535 34.3939L281.845 16.9373L345.011 26.8Z" fill="black"/>
<path d="M345.068 41.9511L336.04 38.6265L340.535 34.3943L345.068 41.9511Z" fill="#6FA521"/>
<path opacity="0.2" d="M340.535 34.3943L336.04 38.6265L337.481 39.1543L340.535 34.3943Z" fill="black"/>
<path d="M356.911 31.727C356.856 31.7666 356.81 31.8165 356.776 31.8738C356.742 31.9311 356.719 31.9946 356.711 32.0604C356.691 32.2185 356.73 32.3782 356.821 32.5107C356.912 32.6432 357.049 32.7397 357.207 32.7828L358.944 33.2365C359.017 33.2588 359.094 33.2653 359.17 33.2557C359.245 33.2461 359.318 33.2206 359.383 33.1809C359.447 33.1412 359.502 33.0883 359.543 33.026C359.584 32.9636 359.611 32.8932 359.622 32.8198C359.644 32.6639 359.609 32.5052 359.521 32.3727C359.434 32.2401 359.3 32.1425 359.144 32.0975L357.389 31.6437C357.308 31.6208 357.223 31.6164 357.14 31.6309C357.057 31.6454 356.979 31.6783 356.911 31.727Z" fill="#455A64"/>
<path d="M364.861 33.7924C365.996 34.1629 367.132 34.5518 368.249 34.95C368.402 35.0062 368.529 35.1136 368.608 35.2528C368.686 35.392 368.711 35.5539 368.678 35.7094C368.658 35.7811 368.623 35.8478 368.574 35.905C368.525 35.9622 368.465 36.0086 368.396 36.0411C368.327 36.0736 368.252 36.0914 368.176 36.0933C368.099 36.0952 368.023 36.0811 367.953 36.0521C366.846 35.6539 365.72 35.2742 364.594 34.9037C364.44 34.8529 364.311 34.7497 364.231 34.6134C364.15 34.4771 364.123 34.317 364.155 34.1629C364.177 34.044 364.245 33.938 364.345 33.8665C364.418 33.8133 364.503 33.7787 364.593 33.7657C364.683 33.7528 364.775 33.762 364.861 33.7924ZM373.841 37.1448C374.957 37.6264 376.055 38.0709 377.143 38.6358C377.29 38.7027 377.407 38.8201 377.47 38.9655C377.534 39.1108 377.539 39.2738 377.486 39.423C377.458 39.4921 377.415 39.5546 377.36 39.6063C377.305 39.6581 377.239 39.6979 377.167 39.7233C377.095 39.7487 377.018 39.759 376.941 39.7535C376.865 39.748 376.79 39.7269 376.723 39.6916C375.654 39.1822 374.566 38.6914 373.469 38.2284C373.321 38.1634 373.202 38.0491 373.134 37.9064C373.066 37.7637 373.052 37.6019 373.097 37.4504C373.128 37.3505 373.192 37.2629 373.278 37.2004C373.358 37.1428 373.452 37.1073 373.552 37.0975C373.651 37.0877 373.751 37.1041 373.841 37.1448ZM382.525 41.3956C383.594 41.9883 384.644 42.6087 385.674 43.2477C385.812 43.3304 385.913 43.4585 385.961 43.6083C386.008 43.7582 385.998 43.9196 385.932 44.0627C385.894 44.1282 385.843 44.1853 385.78 44.2303C385.718 44.2752 385.647 44.307 385.572 44.3236C385.496 44.3402 385.418 44.3412 385.342 44.3265C385.266 44.3119 385.194 44.282 385.13 44.2386C384.119 43.6182 383.079 43.0162 382.029 42.3865C381.887 42.3099 381.78 42.1854 381.727 42.0367C381.674 41.8881 381.68 41.7257 381.743 41.5808C381.774 41.5036 381.827 41.4363 381.895 41.3863C381.99 41.3279 382.1 41.2977 382.212 41.2993C382.324 41.301 382.433 41.3344 382.525 41.3956ZM390.751 46.5909C391.753 47.304 392.736 48.0448 393.681 48.7857C393.809 48.8814 393.895 49.0205 393.922 49.1751C393.948 49.3297 393.913 49.4884 393.824 49.6192C393.777 49.6791 393.718 49.7288 393.65 49.765C393.581 49.8012 393.506 49.823 393.429 49.8291C393.351 49.8352 393.274 49.8255 393.2 49.8005C393.127 49.7755 393.06 49.7358 393.004 49.684C392.049 48.9524 391.095 48.23 390.141 47.5262C390.007 47.436 389.913 47.3001 389.877 47.1457C389.842 46.9912 389.868 46.8295 389.95 46.6928C389.977 46.6442 390.017 46.6029 390.064 46.5724C390.167 46.5056 390.288 46.4715 390.411 46.4749C390.534 46.4782 390.653 46.5187 390.751 46.5909ZM398.338 52.7771C399.235 53.6013 400.123 54.4533 400.982 55.3238C401.093 55.4359 401.154 55.5852 401.154 55.7406C401.154 55.8959 401.093 56.0452 400.982 56.1573C400.927 56.2111 400.861 56.2537 400.789 56.2829C400.717 56.312 400.64 56.327 400.562 56.327C400.484 56.327 400.406 56.312 400.334 56.2829C400.262 56.2537 400.197 56.2111 400.142 56.1573C399.302 55.3053 398.424 54.4626 397.546 53.6569C397.427 53.5534 397.352 53.4097 397.338 53.2548C397.324 53.1 397.371 52.9457 397.47 52.8234L397.546 52.7493C397.658 52.658 397.801 52.6104 397.948 52.6155C398.094 52.6206 398.233 52.6782 398.338 52.7771ZM405.104 59.8339C405.725 60.5655 406.326 61.3063 406.927 62.0657L407.404 62.6862C407.504 62.8046 407.552 62.9564 407.538 63.1088C407.524 63.2613 407.448 63.4022 407.328 63.5011C407.263 63.5445 407.19 63.5749 407.113 63.5905C407.036 63.6061 406.956 63.6066 406.879 63.5919C406.801 63.5772 406.728 63.5477 406.662 63.5051C406.597 63.4625 406.541 63.4076 406.498 63.3437L406.02 62.7325C405.438 61.9916 404.847 61.26 404.236 60.5377C404.126 60.4271 404.064 60.2794 404.064 60.1256C404.064 59.9718 404.126 59.824 404.236 59.7135C404.297 59.6603 404.369 59.6201 404.447 59.5953C404.525 59.5706 404.607 59.5618 404.689 59.5697C404.771 59.5775 404.85 59.6017 404.921 59.6409C404.993 59.68 405.055 59.7331 405.104 59.7968V59.8339ZM410.114 67.4277C410.255 67.3561 410.418 67.3391 410.57 67.3805C410.723 67.4218 410.854 67.5182 410.935 67.65C411.594 68.6687 412.243 69.7059 412.844 70.7524C412.886 70.8159 412.914 70.887 412.927 70.9613C412.94 71.0356 412.937 71.1116 412.919 71.185C412.902 71.2583 412.869 71.3275 412.823 71.3884C412.777 71.4493 412.719 71.5007 412.653 71.5395C412.508 71.6024 412.343 71.6096 412.193 71.5598C412.043 71.51 411.917 71.4068 411.842 71.271C411.231 70.243 410.592 69.2151 409.933 68.2242C409.849 68.1065 409.812 67.9623 409.832 67.82C409.851 67.6778 409.925 67.5477 410.038 67.4555L410.114 67.4277ZM414.953 75.7625C415.105 75.7093 415.273 75.7141 415.421 75.7759C415.57 75.8378 415.689 75.9521 415.754 76.0959C416.279 77.1794 416.795 78.2814 417.262 79.3835C417.295 79.4513 417.314 79.5249 417.317 79.5999C417.32 79.6749 417.307 79.7498 417.28 79.8199C417.252 79.89 417.21 79.9539 417.156 80.0078C417.102 80.0617 417.038 80.1045 416.966 80.1336C416.811 80.1764 416.644 80.1612 416.499 80.0909C416.355 80.0207 416.242 79.9005 416.184 79.7539C415.726 78.6704 415.23 77.5869 414.705 76.5311C414.639 76.4163 414.617 76.2826 414.644 76.1538C414.67 76.0249 414.742 75.9093 414.848 75.8273C414.873 75.7771 414.909 75.7329 414.953 75.6976V75.7625ZM418.627 84.5602C418.786 84.5311 418.95 84.5604 419.088 84.6427C419.226 84.7249 419.327 84.854 419.371 85.0048C419.734 86.1346 420.078 87.2922 420.373 88.4405C420.396 88.5117 420.403 88.5868 420.394 88.6609C420.385 88.7349 420.36 88.8062 420.32 88.8701C420.28 88.934 420.227 88.989 420.164 89.0314C420.101 89.0739 420.029 89.1029 419.953 89.1166C419.794 89.1367 419.632 89.0986 419.5 89.0096C419.368 88.9206 419.274 88.7871 419.238 88.635C418.942 87.5052 418.608 86.3661 418.283 85.2641C418.243 85.1575 418.238 85.0414 418.269 84.9318C418.299 84.8223 418.365 84.7248 418.455 84.6529C418.498 84.5875 418.557 84.5334 418.627 84.4954V84.5602ZM420.917 93.6822C421.081 93.6783 421.24 93.7327 421.365 93.8351C421.49 93.9375 421.572 94.0808 421.595 94.2378C421.786 95.3954 421.938 96.5715 422.063 97.7384C422.072 97.811 422.065 97.8846 422.043 97.9546C422.021 98.0246 421.984 98.0892 421.935 98.1443C421.885 98.1994 421.824 98.2437 421.756 98.2743C421.687 98.3049 421.613 98.3211 421.538 98.3218C421.374 98.3201 421.217 98.2595 421.097 98.1516C420.977 98.0438 420.903 97.8965 420.889 97.7384C420.765 96.5993 420.622 95.451 420.431 94.3119C420.413 94.216 420.423 94.1173 420.458 94.0261C420.493 93.9349 420.553 93.8546 420.631 93.7933C420.704 93.7061 420.805 93.6443 420.917 93.6173V93.6822Z" fill="#455A64"/>
<path d="M431.367 241.54C428.81 240.058 425.202 240.262 421.194 242.466L348.513 283.214C340.755 287.557 334.456 297.892 334.456 306.292C334.456 310.394 335.964 313.265 338.407 314.627L346.204 318.988C348.752 320.396 352.312 320.174 356.262 317.96L428.953 277.213C436.711 272.87 443 262.534 443 254.135C443 250.06 441.511 247.18 439.088 245.8C437.761 245.096 432.646 242.281 431.367 241.54Z" fill="#E0E0E0"/>
<path d="M349.811 319.489C345.421 319.489 342.692 316.118 342.692 310.7C342.692 302.468 348.886 292.29 356.501 288.03L429.191 247.282C431.063 246.156 433.203 245.518 435.404 245.43C439.794 245.43 442.523 248.801 442.523 254.219C442.523 262.461 436.33 272.629 428.714 276.898L356.024 317.646C354.153 318.774 352.012 319.409 349.811 319.489Z" fill="#FAFAFA"/>
<path d="M435.404 245.856C439.498 245.856 442.084 249.051 442.084 254.191C442.084 262.285 435.995 272.277 428.514 276.417L355.823 317.164C354.025 318.253 351.967 318.872 349.849 318.961C348.943 318.99 348.041 318.818 347.214 318.457C346.387 318.096 345.656 317.555 345.078 316.877C343.722 315.071 343.048 312.867 343.169 310.635C343.169 302.551 349.258 292.558 356.74 288.41L429.43 247.662C431.228 246.573 433.286 245.954 435.404 245.865M435.404 244.939C433.117 245.023 430.893 245.687 428.953 246.865L356.262 287.613C348.504 291.966 342.215 302.291 342.215 310.691C342.215 316.572 345.297 319.952 349.849 319.952C352.135 319.866 354.358 319.205 356.301 318.035L428.991 277.287C436.749 272.944 443.038 262.609 443.038 254.209C443.038 248.329 439.956 244.948 435.404 244.948V244.939Z" fill="#EBEBEB"/>
<path d="M367.657 296.671C367.953 296.133 367.905 295.578 367.657 295.43L365.223 294.068C365.172 294.042 365.114 294.029 365.056 294.029C364.998 294.029 364.941 294.042 364.889 294.068L362.656 294.902L361.921 293.383C361.885 293.308 361.825 293.246 361.75 293.207L359.316 291.836C359.011 291.67 358.505 292.049 358.305 292.679L356.787 297.504C356.704 297.795 356.531 298.053 356.291 298.245L352.903 300.792C352.359 301.19 352.149 302.171 352.54 302.44L354.993 304.163C355.078 304.247 355.139 304.35 355.172 304.463C355.206 304.576 355.21 304.696 355.184 304.811L354.602 309.506C354.554 309.849 354.659 310.08 354.821 310.164L357.255 311.534C357.446 311.636 357.732 311.534 357.99 311.229L361.024 307.469C361.088 307.366 361.177 307.28 361.284 307.22C361.391 307.16 361.512 307.128 361.635 307.126L364.679 307.45C365.157 307.515 365.72 306.663 365.634 306.024L365.052 301.977C365.025 301.678 365.091 301.378 365.242 301.116L367.657 296.671Z" fill="#6FA521"/>
<path opacity="0.15" d="M367.628 295.411C367.576 295.388 367.519 295.376 367.461 295.376C367.404 295.376 367.347 295.388 367.294 295.411L363.897 296.671C363.853 296.692 363.805 296.704 363.755 296.706C363.706 296.708 363.657 296.7 363.611 296.683C363.565 296.665 363.524 296.639 363.489 296.605C363.455 296.571 363.428 296.53 363.41 296.486L362.628 294.874L364.861 294.05C364.913 294.025 364.97 294.012 365.028 294.012C365.086 294.012 365.143 294.025 365.195 294.05L367.628 295.411Z" fill="white"/>
<path opacity="0.15" d="M359.192 298.856C359.107 299.146 358.934 299.404 358.696 299.597L355.308 302.134C355.152 302.252 355.028 302.405 354.945 302.579L352.512 301.208C352.599 301.037 352.723 300.886 352.874 300.764L356.262 298.226C356.5 298.037 356.673 297.782 356.759 297.495L359.192 298.856Z" fill="white"/>
<path opacity="0.1" d="M361.74 293.198C361.435 293.003 360.919 293.383 360.71 294.031L359.192 298.856L356.759 297.486L358.276 292.661C358.476 292.031 358.982 291.651 359.288 291.818C359.354 291.818 361.416 293.022 361.731 293.189L361.74 293.198Z" fill="black"/>
<path opacity="0.25" d="M357.398 305.515L354.984 304.162L352.531 302.44C352.245 302.236 352.283 301.681 352.531 301.227L354.965 302.597C354.716 303.042 354.678 303.607 354.965 303.811L357.398 305.515Z" fill="black"/>
<path opacity="0.15" d="M357.045 310.858C357.045 311.201 357.102 311.433 357.283 311.525L354.84 310.155C354.744 310.076 354.674 309.972 354.636 309.856C354.599 309.739 354.597 309.615 354.63 309.497L355.213 304.802C355.237 304.691 355.234 304.577 355.204 304.467C355.174 304.358 355.118 304.257 355.041 304.172L357.455 305.524C357.533 305.607 357.59 305.706 357.62 305.814C357.649 305.922 357.652 306.035 357.627 306.145L357.045 310.858Z" fill="black"/>
<path d="M361.893 293.364L363.41 296.494C363.428 296.539 363.455 296.58 363.489 296.614C363.524 296.648 363.565 296.674 363.611 296.692C363.657 296.709 363.706 296.717 363.755 296.715C363.805 296.713 363.853 296.701 363.897 296.68L367.294 295.42C367.829 295.216 368.048 295.957 367.657 296.67L365.204 301.134C365.053 301.396 364.987 301.696 365.013 301.995L365.596 306.042C365.681 306.681 365.118 307.533 364.641 307.468L361.607 307.107C361.483 307.109 361.362 307.142 361.255 307.202C361.148 307.262 361.059 307.347 360.996 307.45L357.999 311.21C357.513 311.812 356.95 311.599 357.045 310.849L357.627 306.153C357.655 306.039 357.652 305.919 357.618 305.805C357.585 305.692 357.522 305.589 357.436 305.505L354.984 303.792C354.592 303.514 354.812 302.542 355.346 302.134L358.734 299.597C358.974 299.405 359.148 299.147 359.23 298.856L360.748 294.031C360.948 293.262 361.645 292.873 361.893 293.364Z" fill="#6FA521"/>
<path opacity="0.5" d="M361.893 293.364L363.41 296.494C363.428 296.539 363.455 296.58 363.489 296.614C363.524 296.648 363.565 296.674 363.611 296.692C363.657 296.709 363.706 296.717 363.755 296.715C363.805 296.713 363.853 296.701 363.897 296.68L367.294 295.42C367.829 295.216 368.048 295.957 367.657 296.67L365.204 301.134C365.053 301.396 364.987 301.696 365.013 301.995L365.596 306.042C365.681 306.681 365.118 307.533 364.641 307.468L361.607 307.107C361.483 307.109 361.362 307.142 361.255 307.202C361.148 307.262 361.059 307.347 360.996 307.45L357.999 311.21C357.513 311.812 356.95 311.599 357.045 310.849L357.627 306.153C357.655 306.039 357.652 305.919 357.618 305.805C357.585 305.692 357.522 305.589 357.436 305.505L354.984 303.792C354.592 303.514 354.812 302.542 355.346 302.134L358.734 299.597C358.974 299.405 359.148 299.147 359.23 298.856L360.748 294.031C360.948 293.262 361.645 292.873 361.893 293.364Z" fill="white"/>
<path d="M384.72 287.132C385.016 286.595 384.959 286.048 384.72 285.9L382.296 284.539C382.243 284.513 382.184 284.499 382.124 284.499C382.065 284.499 382.006 284.513 381.953 284.539L379.729 285.372L378.985 283.854C378.955 283.778 378.897 283.715 378.822 283.678L376.389 282.307C376.084 282.14 375.578 282.52 375.377 283.15L373.793 288.002C373.707 288.291 373.534 288.549 373.297 288.743L369.909 291.281C369.365 291.688 369.155 292.67 369.537 292.938L371.999 294.661C372.083 294.745 372.144 294.849 372.176 294.962C372.208 295.076 372.209 295.195 372.18 295.309L371.608 300.005C371.56 300.347 371.656 300.579 371.818 300.662L374.223 301.986C374.414 302.088 374.69 301.986 374.957 301.681L377.992 297.921C378.056 297.818 378.145 297.733 378.252 297.673C378.359 297.613 378.48 297.58 378.603 297.578L381.638 297.939C382.115 297.995 382.678 297.152 382.592 296.513L382.019 292.466C381.988 292.167 382.055 291.866 382.21 291.605L384.72 287.132Z" fill="#6FA521"/>
<path opacity="0.15" d="M384.663 285.891C384.61 285.869 384.553 285.857 384.496 285.857C384.438 285.857 384.381 285.869 384.329 285.891L380.903 287.151C380.858 287.172 380.809 287.184 380.759 287.186C380.709 287.189 380.66 287.181 380.613 287.163C380.566 287.146 380.524 287.119 380.489 287.085C380.453 287.051 380.425 287.011 380.407 286.966L379.634 285.354L381.857 284.53C381.911 284.505 381.969 284.491 382.029 284.491C382.088 284.491 382.147 284.505 382.201 284.53L384.663 285.891Z" fill="white"/>
<path opacity="0.15" d="M376.227 289.326C376.142 289.616 375.969 289.874 375.73 290.067L372.314 292.633C372.158 292.75 372.034 292.903 371.951 293.077L369.537 291.706C369.631 291.537 369.757 291.386 369.909 291.262L373.297 288.724C373.534 288.53 373.706 288.273 373.793 287.984L376.227 289.326Z" fill="white"/>
<path opacity="0.1" d="M378.775 283.668C378.469 283.474 377.954 283.853 377.744 284.502L376.227 289.327L373.793 288.002L375.31 283.177C375.511 282.548 376.017 282.168 376.322 282.335C376.389 282.335 378.45 283.539 378.756 283.696L378.775 283.668Z" fill="black"/>
<path opacity="0.25" d="M374.432 295.976L372.018 294.633L369.565 292.91C369.289 292.707 369.327 292.151 369.565 291.697L372.009 293.068C371.76 293.512 371.722 294.077 372.009 294.272L374.432 295.976Z" fill="black"/>
<path opacity="0.15" d="M374.041 301.32C373.994 301.672 374.098 301.903 374.27 301.996L371.837 300.625C371.675 300.532 371.579 300.31 371.627 299.968L372.209 295.272C372.231 295.162 372.227 295.047 372.197 294.938C372.167 294.829 372.113 294.728 372.037 294.643L374.452 295.985C374.53 296.068 374.586 296.167 374.616 296.275C374.646 296.383 374.648 296.497 374.623 296.606L374.041 301.32Z" fill="black"/>
<path d="M378.918 283.835L380.435 286.965C380.454 287.01 380.482 287.051 380.517 287.085C380.553 287.119 380.595 287.146 380.642 287.163C380.688 287.18 380.738 287.188 380.788 287.186C380.838 287.184 380.887 287.172 380.931 287.15L384.329 285.891C384.863 285.687 385.083 286.428 384.691 287.132L382.239 291.605C382.084 291.866 382.017 292.167 382.048 292.466L382.621 296.513C382.716 297.152 382.153 297.995 381.666 297.939L378.632 297.578C378.508 297.58 378.387 297.613 378.28 297.673C378.173 297.733 378.084 297.818 378.021 297.921L374.986 301.681C374.499 302.283 373.936 302.07 374.032 301.32L374.614 296.624C374.64 296.509 374.636 296.39 374.602 296.277C374.569 296.164 374.507 296.06 374.423 295.976L371.97 294.263C371.579 293.985 371.789 293.013 372.333 292.605L375.721 290.068C375.961 289.876 376.134 289.617 376.217 289.327L377.734 284.502C377.983 283.733 378.679 283.372 378.918 283.835Z" fill="#6FA521"/>
<path opacity="0.5" d="M378.918 283.835L380.435 286.965C380.454 287.01 380.482 287.051 380.517 287.085C380.553 287.119 380.595 287.146 380.642 287.163C380.688 287.18 380.738 287.188 380.788 287.186C380.838 287.184 380.887 287.172 380.931 287.15L384.329 285.891C384.863 285.687 385.083 286.428 384.691 287.132L382.239 291.605C382.084 291.866 382.017 292.167 382.048 292.466L382.621 296.513C382.716 297.152 382.153 297.995 381.666 297.939L378.632 297.578C378.508 297.58 378.387 297.613 378.28 297.673C378.173 297.733 378.084 297.818 378.021 297.921L374.986 301.681C374.499 302.283 373.936 302.07 374.032 301.32L374.614 296.624C374.64 296.509 374.636 296.39 374.602 296.277C374.569 296.164 374.507 296.06 374.423 295.976L371.97 294.263C371.579 293.985 371.789 293.013 372.333 292.605L375.721 290.068C375.961 289.876 376.134 289.617 376.217 289.327L377.734 284.502C377.983 283.733 378.679 283.372 378.918 283.835Z" fill="white"/>
<path d="M401.726 277.602C402.012 277.065 401.965 276.519 401.726 276.371L399.264 275.037C399.21 275.013 399.151 275.001 399.092 275.001C399.033 275.001 398.974 275.013 398.92 275.037L396.687 275.87L395.952 274.352C395.922 274.276 395.865 274.213 395.79 274.176L393.357 272.805C393.051 272.638 392.536 273.018 392.345 273.648L390.828 278.473C390.741 278.762 390.568 279.019 390.332 279.214L386.934 281.751C386.4 282.159 386.18 283.131 386.571 283.409L389.024 285.131C389.112 285.213 389.177 285.316 389.21 285.43C389.244 285.544 389.245 285.665 389.215 285.78L388.633 290.475C388.633 290.817 388.69 291.04 388.852 291.132L391.286 292.503C391.486 292.605 391.763 292.503 392.03 292.197L395.055 288.437C395.12 288.333 395.21 288.247 395.319 288.187C395.428 288.127 395.551 288.095 395.676 288.095L398.701 288.456C399.188 288.511 399.751 287.669 399.655 287.03L399.083 282.983C399.052 282.685 399.116 282.384 399.264 282.122L401.726 277.602Z" fill="#6FA521"/>
<path opacity="0.15" d="M401.697 276.362C401.643 276.339 401.585 276.327 401.525 276.327C401.466 276.327 401.408 276.339 401.354 276.362L397.966 277.621C397.921 277.642 397.872 277.655 397.822 277.657C397.773 277.659 397.723 277.651 397.676 277.634C397.63 277.616 397.587 277.59 397.552 277.556C397.516 277.522 397.488 277.481 397.47 277.436L396.687 275.825L398.92 275C398.972 274.975 399.029 274.962 399.087 274.962C399.145 274.962 399.202 274.975 399.254 275L401.697 276.362Z" fill="white"/>
<path opacity="0.15" d="M393.309 279.788C393.222 280.08 393.05 280.34 392.813 280.538L389.425 283.075C389.269 283.195 389.142 283.347 389.053 283.52L386.619 282.149C386.713 281.98 386.84 281.829 386.991 281.705L390.379 279.167C390.616 278.973 390.789 278.716 390.875 278.427L393.309 279.788Z" fill="white"/>
<path opacity="0.1" d="M395.809 274.111C395.504 273.917 394.979 274.297 394.779 274.936L393.309 279.788L390.875 278.427L392.393 273.602C392.593 272.972 393.099 272.593 393.404 272.759C393.471 272.759 395.523 273.963 395.838 274.121L395.809 274.111Z" fill="black"/>
<path opacity="0.25" d="M391.458 286.446L389.053 285.104L386.571 283.372C386.295 283.168 386.323 282.612 386.571 282.159L389.005 283.529C388.766 283.974 388.728 284.539 389.005 284.733L391.458 286.446Z" fill="black"/>
<path opacity="0.15" d="M391.076 291.79C391.028 292.142 391.133 292.374 391.305 292.466L388.871 291.096C388.709 291.003 388.614 290.781 388.652 290.438L389.234 285.734C389.259 285.625 389.257 285.513 389.229 285.405C389.2 285.297 389.147 285.197 389.072 285.113L391.477 286.456C391.551 286.54 391.606 286.64 391.635 286.747C391.665 286.855 391.67 286.967 391.648 287.077L391.076 291.79Z" fill="black"/>
<path d="M395.952 274.305L397.47 277.436C397.488 277.481 397.516 277.521 397.552 277.555C397.587 277.589 397.63 277.616 397.676 277.633C397.723 277.651 397.773 277.658 397.822 277.656C397.872 277.654 397.921 277.642 397.966 277.621L401.354 276.361C401.898 276.158 402.108 276.898 401.726 277.602L399.264 282.075C399.116 282.338 399.052 282.638 399.083 282.937L399.655 286.983C399.751 287.622 399.188 288.465 398.701 288.41L395.676 288.048C395.551 288.049 395.428 288.081 395.319 288.141C395.21 288.201 395.12 288.287 395.055 288.391L392.03 292.151C391.543 292.753 390.98 292.54 391.076 291.79L391.648 287.095C391.677 286.98 391.676 286.861 391.644 286.748C391.612 286.634 391.551 286.531 391.467 286.446L389.005 284.724C388.623 284.455 388.833 283.474 389.377 283.075L392.765 280.538C393.002 280.344 393.175 280.086 393.261 279.797L394.779 274.972C395.017 274.204 395.714 273.815 395.952 274.305Z" fill="#6FA521"/>
<path opacity="0.5" d="M395.952 274.305L397.47 277.436C397.488 277.481 397.516 277.521 397.552 277.555C397.587 277.589 397.63 277.616 397.676 277.633C397.723 277.651 397.773 277.658 397.822 277.656C397.872 277.654 397.921 277.642 397.966 277.621L401.354 276.361C401.898 276.158 402.108 276.898 401.726 277.602L399.264 282.075C399.116 282.338 399.052 282.638 399.083 282.937L399.655 286.983C399.751 287.622 399.188 288.465 398.701 288.41L395.676 288.048C395.551 288.049 395.428 288.081 395.319 288.141C395.21 288.201 395.12 288.287 395.055 288.391L392.03 292.151C391.543 292.753 390.98 292.54 391.076 291.79L391.648 287.095C391.677 286.98 391.676 286.861 391.644 286.748C391.612 286.634 391.551 286.531 391.467 286.446L389.005 284.724C388.623 284.455 388.833 283.474 389.377 283.075L392.765 280.538C393.002 280.344 393.175 280.086 393.261 279.797L394.779 274.972C395.017 274.204 395.714 273.815 395.952 274.305Z" fill="white"/>
<path d="M418.751 268.073C419.047 267.536 418.999 266.99 418.751 266.841L416.327 265.471C416.273 265.447 416.214 265.435 416.155 265.435C416.096 265.435 416.037 265.447 415.983 265.471L413.75 266.304L413.016 264.786C412.983 264.709 412.926 264.644 412.853 264.6C412.548 264.443 410.487 263.276 410.42 263.239C410.114 263.072 409.599 263.452 409.399 264.082L407.881 268.907C407.798 269.195 407.629 269.453 407.395 269.647L403.997 272.185C403.463 272.592 403.243 273.565 403.635 273.843L406.087 275.565C406.174 275.646 406.237 275.748 406.271 275.86C406.304 275.972 406.307 276.091 406.278 276.204L405.696 280.899C405.696 281.242 405.753 281.474 405.915 281.566L408.349 282.937C408.54 283.039 408.826 282.937 409.084 282.631L412.118 278.871C412.182 278.768 412.271 278.683 412.378 278.623C412.485 278.563 412.606 278.531 412.729 278.529L415.764 278.89C416.251 278.945 416.814 278.103 416.718 277.464L416.136 273.417C416.113 273.118 416.18 272.819 416.327 272.555L418.751 268.073Z" fill="#6FA521"/>
<path opacity="0.15" d="M418.722 266.832C418.67 266.809 418.613 266.796 418.555 266.796C418.498 266.796 418.441 266.809 418.388 266.832L414.991 268.091C414.947 268.113 414.899 268.125 414.849 268.127C414.8 268.129 414.751 268.121 414.705 268.103C414.659 268.086 414.618 268.059 414.583 268.025C414.549 267.991 414.522 267.951 414.504 267.906L413.722 266.295L415.955 265.471C416.006 265.443 416.063 265.428 416.122 265.428C416.18 265.428 416.238 265.443 416.289 265.471L418.722 266.832Z" fill="white"/>
<path opacity="0.15" d="M410.296 270.259C410.209 270.55 410.037 270.811 409.799 271.009L406.412 273.546C406.255 273.666 406.128 273.818 406.039 273.991L403.606 272.62C403.696 272.451 403.82 272.3 403.969 272.176L407.356 269.638C407.6 269.448 407.776 269.189 407.862 268.897L410.296 270.259Z" fill="white"/>
<path opacity="0.1" d="M412.844 264.61C412.538 264.415 412.013 264.795 411.813 265.434L410.296 270.259L407.862 268.897L409.38 264.072C409.57 263.443 410.086 263.063 410.391 263.23C410.458 263.23 412.51 264.434 412.825 264.591L412.844 264.61Z" fill="black"/>
<path opacity="0.25" d="M408.492 276.889L406.087 275.547L403.635 273.824C403.348 273.62 403.386 273.065 403.635 272.611L406.068 273.981C405.82 274.426 405.791 274.991 406.068 275.185L408.492 276.889Z" fill="black"/>
<path opacity="0.15" d="M408.101 282.26C408.101 282.612 408.168 282.844 408.339 282.936L405.887 281.52C405.725 281.427 405.629 281.205 405.667 280.862L406.249 276.158C406.272 276.049 406.269 275.937 406.241 275.829C406.213 275.722 406.16 275.622 406.087 275.537L408.492 276.88C408.567 276.964 408.621 277.064 408.649 277.171C408.677 277.279 408.679 277.392 408.654 277.5L408.101 282.26Z" fill="black"/>
<path d="M412.987 264.776L414.504 267.907C414.523 267.951 414.551 267.992 414.586 268.026C414.622 268.06 414.664 268.087 414.711 268.104C414.757 268.122 414.807 268.129 414.857 268.127C414.907 268.125 414.956 268.113 415.001 268.092L418.388 266.832C418.932 266.629 419.142 267.369 418.751 268.073L416.298 272.546C416.151 272.81 416.085 273.109 416.108 273.407L416.69 277.454C416.785 278.093 416.222 278.936 415.735 278.881L412.701 278.519C412.577 278.521 412.456 278.554 412.349 278.614C412.243 278.674 412.153 278.759 412.09 278.862L409.055 282.622C408.578 283.224 408.015 283.011 408.101 282.261L408.683 277.566C408.713 277.451 408.712 277.33 408.678 277.216C408.645 277.102 408.58 276.999 408.492 276.917L406.04 275.195C405.648 274.926 405.868 273.945 406.402 273.546L409.8 271.009C410.035 270.813 410.207 270.556 410.296 270.268L411.813 265.434C412.052 264.675 412.748 264.286 412.987 264.776Z" fill="#6FA521"/>
<path opacity="0.5" d="M412.987 264.776L414.504 267.907C414.523 267.951 414.551 267.992 414.586 268.026C414.622 268.06 414.664 268.087 414.711 268.104C414.757 268.122 414.807 268.129 414.857 268.127C414.907 268.125 414.956 268.113 415.001 268.092L418.388 266.832C418.932 266.629 419.142 267.369 418.751 268.073L416.298 272.546C416.151 272.81 416.085 273.109 416.108 273.407L416.69 277.454C416.785 278.093 416.222 278.936 415.735 278.881L412.701 278.519C412.577 278.521 412.456 278.554 412.349 278.614C412.243 278.674 412.153 278.759 412.09 278.862L409.055 282.622C408.578 283.224 408.015 283.011 408.101 282.261L408.683 277.566C408.713 277.451 408.712 277.33 408.678 277.216C408.645 277.102 408.58 276.999 408.492 276.917L406.04 275.195C405.648 274.926 405.868 273.945 406.402 273.546L409.8 271.009C410.035 270.813 410.207 270.556 410.296 270.268L411.813 265.434C412.052 264.675 412.748 264.286 412.987 264.776Z" fill="white"/>
<path d="M435.785 258.544C436.081 258.007 436.034 257.46 435.785 257.303L433.352 255.941C433.3 255.918 433.243 255.906 433.185 255.906C433.127 255.906 433.07 255.918 433.018 255.941L430.785 256.775L430.05 255.256C430.011 255.183 429.956 255.12 429.888 255.071C429.573 254.913 427.512 253.747 427.454 253.71C427.139 253.543 426.634 253.913 426.433 254.552L424.916 259.377C424.833 259.668 424.66 259.927 424.42 260.118L420.984 262.646C420.44 263.054 420.23 264.026 420.621 264.304L423.074 266.026C423.161 266.107 423.224 266.209 423.257 266.321C423.291 266.433 423.293 266.552 423.265 266.665L422.702 271.333C422.702 271.676 422.759 271.907 422.921 272L425.355 273.37C425.546 273.472 425.832 273.37 426.09 273.065L429.124 269.305C429.188 269.202 429.277 269.116 429.384 269.057C429.491 268.997 429.612 268.964 429.735 268.962L432.77 269.323C433.247 269.379 433.81 268.536 433.724 267.897L433.142 263.85C433.115 263.551 433.181 263.251 433.333 262.989L435.785 258.544Z" fill="#6FA521"/>
<path opacity="0.15" d="M435.757 257.303C435.705 257.277 435.648 257.264 435.59 257.264C435.532 257.264 435.475 257.277 435.423 257.303L432.025 258.562C431.981 258.583 431.933 258.595 431.884 258.597C431.835 258.6 431.786 258.592 431.74 258.574C431.694 258.557 431.652 258.53 431.618 258.496C431.583 258.462 431.556 258.422 431.539 258.377L430.756 256.766L432.989 255.932C433.041 255.906 433.098 255.893 433.156 255.893C433.214 255.893 433.272 255.906 433.323 255.932L435.757 257.303Z" fill="white"/>
<path opacity="0.15" d="M427.33 260.729C427.241 261.022 427.065 261.282 426.824 261.479L423.437 264.017C423.283 264.137 423.16 264.289 423.074 264.461L420.641 263.091C420.728 262.919 420.851 262.768 421.003 262.646L424.391 260.109C424.631 259.917 424.804 259.658 424.887 259.368L427.33 260.729Z" fill="white"/>
<path opacity="0.1" d="M429.878 255.071C429.573 254.886 429.048 255.265 428.848 255.904L427.33 260.729L424.887 259.368L426.405 254.543C426.605 253.913 427.12 253.534 427.426 253.7C427.492 253.7 429.544 254.904 429.859 255.062L429.878 255.071Z" fill="black"/>
<path opacity="0.25" d="M425.527 267.387L423.112 266.045L420.66 264.322C420.373 264.118 420.412 263.563 420.66 263.109L423.093 264.479C422.845 264.924 422.807 265.489 423.093 265.683L425.527 267.387Z" fill="black"/>
<path opacity="0.15" d="M425.135 272.731C425.135 273.083 425.193 273.315 425.374 273.398L422.893 272.028C422.73 271.935 422.635 271.713 422.673 271.361L423.255 266.666C423.279 266.556 423.275 266.443 423.246 266.336C423.216 266.228 423.16 266.128 423.084 266.045L425.498 267.388C425.574 267.472 425.628 267.571 425.656 267.679C425.684 267.787 425.686 267.9 425.66 268.008L425.135 272.731Z" fill="black"/>
<path d="M430.021 255.247L431.539 258.377C431.557 258.422 431.585 258.463 431.621 258.497C431.656 258.531 431.699 258.557 431.745 258.575C431.792 258.592 431.842 258.6 431.892 258.598C431.941 258.596 431.99 258.584 432.035 258.562L435.423 257.303C435.957 257.099 436.177 257.84 435.786 258.544L433.333 262.998C433.181 263.26 433.115 263.56 433.142 263.859L433.724 267.906C433.81 268.545 433.247 269.388 432.77 269.333L429.735 268.971C429.612 268.973 429.491 269.006 429.384 269.066C429.277 269.126 429.188 269.211 429.124 269.314L426.09 273.074C425.613 273.676 425.049 273.454 425.135 272.713L425.718 268.018C425.745 267.903 425.742 267.783 425.709 267.669C425.675 267.556 425.613 267.453 425.527 267.369L423.074 265.647C422.683 265.378 422.902 264.397 423.437 263.998L426.834 261.461C427.064 261.263 427.233 261.006 427.321 260.72L428.838 255.886C429.086 255.145 429.783 254.747 430.021 255.247Z" fill="#6FA521"/>
<path opacity="0.5" d="M430.021 255.247L431.539 258.377C431.557 258.422 431.585 258.463 431.621 258.497C431.656 258.531 431.699 258.557 431.745 258.575C431.792 258.592 431.842 258.6 431.892 258.598C431.941 258.596 431.99 258.584 432.035 258.562L435.423 257.303C435.957 257.099 436.177 257.84 435.786 258.544L433.333 262.998C433.181 263.26 433.115 263.56 433.142 263.859L433.724 267.906C433.81 268.545 433.247 269.388 432.77 269.333L429.735 268.971C429.612 268.973 429.491 269.006 429.384 269.066C429.277 269.126 429.188 269.211 429.124 269.314L426.09 273.074C425.613 273.676 425.049 273.454 425.135 272.713L425.718 268.018C425.745 267.903 425.742 267.783 425.709 267.669C425.675 267.556 425.613 267.453 425.527 267.369L423.074 265.647C422.683 265.378 422.902 264.397 423.437 263.998L426.834 261.461C427.064 261.263 427.233 261.006 427.321 260.72L428.838 255.886C429.086 255.145 429.783 254.747 430.021 255.247Z" fill="white"/>
<path d="M442.284 29.6251L434.65 32.8015L433.018 40.701C432.971 40.918 432.863 41.1182 432.706 41.279C432.549 41.4399 432.349 41.5551 432.128 41.6118C431.907 41.6685 431.674 41.6645 431.456 41.6001C431.237 41.5357 431.041 41.4136 430.89 41.2474L425.422 35.1816L417.167 36.1076C416.93 36.1424 416.689 36.109 416.472 36.0117C416.255 35.9144 416.072 35.7574 415.946 35.5602C415.82 35.363 415.756 35.1343 415.763 34.9024C415.77 34.6704 415.846 34.4455 415.984 34.2555L420.23 27.3376L416.776 20.0123C416.692 19.8156 416.664 19.6006 416.695 19.3898C416.726 19.179 416.815 18.9803 416.953 18.8145C417.09 18.6486 417.272 18.5219 417.477 18.4475C417.683 18.3731 417.905 18.3538 418.121 18.3917L426.214 20.179L432.321 14.7244C432.489 14.5722 432.698 14.469 432.923 14.4265C433.148 14.3841 433.382 14.4041 433.596 14.4843C433.81 14.5646 433.996 14.7018 434.134 14.8802C434.271 15.0586 434.354 15.271 434.373 15.493L435.127 23.5129L442.361 27.458C442.574 27.558 442.752 27.716 442.875 27.9126C442.997 28.1092 443.058 28.3361 443.05 28.5657C443.042 28.7952 442.965 29.0175 442.829 29.2056C442.693 29.3937 442.504 29.5394 442.284 29.6251Z" fill="#E0E0E0"/>
<path d="M400.209 15.9002C400.141 15.9856 400.061 16.0606 399.97 16.1224C399.808 16.2355 399.617 16.3024 399.418 16.3155C399.219 16.3286 399.02 16.2873 398.844 16.1965L394.597 14.0295L390.341 16.1965C390.165 16.2873 389.966 16.3286 389.767 16.3155C389.568 16.3024 389.377 16.2355 389.215 16.1224C389.051 16.01 388.924 15.854 388.85 15.6733C388.775 15.4925 388.756 15.2947 388.795 15.1037L389.606 10.4733L386.161 7.22276C386.018 7.08779 385.916 6.91616 385.869 6.72771C385.822 6.53926 385.83 6.34167 385.894 6.15777C385.954 5.97351 386.066 5.8095 386.218 5.68489C386.37 5.56027 386.556 5.48018 386.753 5.45395L391.524 4.78717L393.653 0.601276C393.74 0.428404 393.876 0.282911 394.045 0.181391C394.214 0.0798709 394.408 0.0264113 394.607 0.0271063C394.805 0.0285318 394.999 0.0828663 395.167 0.18415C395.335 0.285434 395.472 0.429752 395.561 0.601276L397.689 4.78717L402.461 5.45395C402.658 5.48193 402.843 5.56288 402.996 5.68764C403.148 5.81241 403.261 5.97603 403.323 6.16001C403.384 6.344 403.392 6.54101 403.344 6.72881C403.296 6.91661 403.195 7.0877 403.053 7.22276L399.607 10.4733L400.428 15.1037C400.465 15.3868 400.386 15.6727 400.209 15.9002ZM386.629 6.27816L386.572 6.39855C386.548 6.4677 386.545 6.54202 386.564 6.61264C386.582 6.68325 386.621 6.74717 386.676 6.79676L390.36 10.2881L389.492 15.2149C389.48 15.2874 389.489 15.3616 389.518 15.4294C389.547 15.4972 389.595 15.5559 389.656 15.5991C389.717 15.6422 389.79 15.668 389.865 15.6738C389.94 15.6795 390.016 15.6649 390.083 15.6316L394.645 13.3071L399.197 15.6316C399.262 15.6682 399.336 15.6874 399.412 15.6874C399.487 15.6874 399.561 15.6682 399.627 15.6316C399.69 15.5894 399.739 15.53 399.768 15.4608C399.797 15.3917 399.804 15.3158 399.789 15.2426L398.92 10.3159L402.604 6.82455C402.657 6.77371 402.695 6.70977 402.714 6.6396C402.732 6.56943 402.73 6.4957 402.709 6.42633C402.687 6.35591 402.645 6.29305 402.588 6.24538C402.53 6.19771 402.46 6.16728 402.385 6.15777L397.279 5.43542L394.95 0.916144C394.919 0.848856 394.868 0.791981 394.803 0.752498C394.739 0.713015 394.664 0.692644 394.588 0.693885C394.519 0.701253 394.453 0.72551 394.396 0.764384C394.339 0.803257 394.294 0.855475 394.263 0.916144L391.992 5.39838L386.886 6.12073C386.784 6.1409 386.692 6.1969 386.629 6.27816Z" fill="#E0E0E0"/>
<path d="M347.063 77.7808C339.877 73.7431 330 74.2895 319.082 80.4016C297.133 92.7185 279.297 122.881 279.297 147.783C279.297 160.313 283.82 169.083 291.102 173.186C292.791 174.112 299.395 177.816 299.395 177.816C299.085 180.634 298.082 183.339 296.469 185.702C294.856 188.065 292.682 190.017 290.128 191.393C289.708 191.624 289.966 192.022 290.338 192.226L300.425 197.884C300.561 197.963 300.716 198.008 300.874 198.014C310.808 198.014 322.308 191.531 325.514 178.066C326.717 177.511 327.929 176.909 329.16 176.214C351.109 163.906 368.945 133.735 368.945 108.842C368.945 96.3024 364.431 87.5417 357.15 83.4114L347.063 77.7808Z" fill="#37474F"/>
<path d="M329.16 86.0511C307.21 98.3588 289.374 128.531 289.374 153.424C289.374 170.325 297.572 180.437 309.711 181.364C309.253 186.735 307.64 192.773 300.168 197.042C299.576 197.385 300.349 198.024 300.845 198.024C310.78 198.024 322.279 191.541 325.486 178.076C326.688 177.52 327.9 176.918 329.131 176.224C351.08 163.916 368.917 133.744 368.917 108.851C368.917 83.9582 351.128 73.7435 329.16 86.0511Z" fill="#455A64"/>
<path d="M300.196 197.042C299.834 197.264 299.996 197.588 300.301 197.811L290.338 192.254C289.966 192.032 289.708 191.652 290.128 191.411C292.687 190.033 294.865 188.075 296.479 185.705C298.092 183.336 299.092 180.623 299.395 177.798L300.492 178.428L301.504 179.002C304.032 180.351 306.833 181.147 309.711 181.336C309.262 186.735 307.64 192.773 300.196 197.042Z" fill="#263238"/>
<path d="M324.961 157.322C323.901 156.59 323.367 155.275 323.367 153.377C323.39 151.399 323.929 149.459 324.932 147.737C325.844 146.016 327.232 144.576 328.94 143.579C330.563 142.671 331.895 142.563 332.939 143.255C333.979 143.94 334.504 145.237 334.504 147.135C334.473 149.148 333.925 151.121 332.91 152.877C332.021 154.615 330.645 156.076 328.94 157.09C327.356 157.97 326.03 158.054 324.961 157.322ZM323.539 106.98L334.332 100.933L332.529 136.235L325.343 140.264L323.539 106.98Z" fill="#FAFAFA"/>
<path opacity="0.2" d="M334.466 172.843C346.185 164.508 356.291 151.293 362.475 137.106C350.756 145.45 340.65 158.656 334.466 172.843Z" fill="black"/>
<path d="M409.399 221.092C405.333 221.139 402.308 218.379 400.409 214.906C412.586 200.376 420.822 181.021 420.822 164.092C420.822 151.544 416.289 142.727 408.988 138.653L398.92 133.022C391.734 128.993 381.867 129.549 370.959 135.652C349.009 147.969 331.173 178.131 331.173 203.034C331.173 215.564 335.687 224.334 342.969 228.455C344.667 229.381 351.357 233.141 353.008 234.076C360.204 238.142 370.1 237.604 381.036 231.474C383.965 229.82 386.745 227.93 389.348 225.825C396.735 231.502 405.744 225.315 409.313 222.352C409.79 221.963 409.847 221.092 409.399 221.092Z" fill="#E0E0E0"/>
<path d="M363.429 236.141C350.126 236.141 341.871 225.63 341.871 208.72C341.871 184.049 359.583 154.081 381.342 141.866C387.43 138.458 393.252 136.727 398.643 136.727C411.937 136.727 420.201 147.228 420.201 164.148C420.201 180.327 412.433 199.654 399.932 214.573L399.674 214.888L399.865 215.24C402.108 219.342 405.362 221.639 409.046 221.722C409.02 221.8 408.974 221.87 408.912 221.926C406.373 224.038 401.335 227.566 396.115 227.566C393.79 227.576 391.534 226.804 389.73 225.38L389.339 225.084L388.948 225.39C386.369 227.459 383.617 229.318 380.721 230.946C374.642 234.363 368.821 236.141 363.429 236.141Z" fill="#FAFAFA"/>
<path d="M398.644 136.125V137.328C411.555 137.328 419.581 147.608 419.581 164.138C419.581 180.197 411.87 199.376 399.455 214.193L398.93 214.814L399.321 215.518C401.382 219.296 404.284 221.62 407.614 222.204C404.971 224.25 400.59 226.982 396.115 226.982C393.929 226.992 391.807 226.266 390.112 224.927L389.329 224.325L388.556 224.945C386.005 227.011 383.282 228.87 380.416 230.502C374.423 233.854 368.707 235.558 363.429 235.558C350.517 235.558 342.492 225.278 342.492 208.702C342.492 184.225 360.061 154.47 381.619 142.366C387.612 139.014 393.328 137.31 398.605 137.31V136.125M398.605 136.125C393.299 136.125 387.325 137.801 380.998 141.348C359.049 153.655 341.213 183.818 341.213 208.72C341.213 226.455 350.25 236.743 363.391 236.743C368.697 236.743 374.671 235.067 380.998 231.52C383.927 229.866 386.707 227.976 389.31 225.871C391.219 227.384 393.612 228.203 396.076 228.186C401.535 228.186 406.755 224.482 409.275 222.398C409.752 222.009 409.809 221.139 409.36 221.139H409.265C405.257 221.139 402.26 218.407 400.371 214.953C412.548 200.422 420.784 181.067 420.784 164.138C420.784 146.404 411.746 136.125 398.605 136.125Z" fill="#6FA521"/>
<path d="M378.994 190.625C380.152 187.93 381.481 185.307 382.974 182.772C384.002 181.032 384.938 179.242 385.779 177.41C386.358 176.153 386.667 174.795 386.686 173.418C386.686 171.566 386.113 170.427 384.968 169.982C383.823 169.538 382.315 169.862 380.416 170.908C378.538 171.978 376.895 173.393 375.578 175.076C374.107 176.939 372.906 178.99 372.008 181.169L364.994 179.771C366.563 175.749 368.786 171.997 371.579 168.658C374.312 165.381 377.644 162.621 381.409 160.518C385.862 158.048 389.428 157.277 392.106 158.203C394.785 159.129 396.127 161.777 396.134 166.148C396.146 168.122 395.883 170.087 395.351 171.992C394.88 173.717 394.241 175.395 393.442 177.002C392.689 178.502 391.706 180.29 390.513 182.364C389.356 184.278 388.311 186.254 387.383 188.282C386.743 189.746 386.418 191.322 386.428 192.912L377.677 197.82C377.642 195.362 378.089 192.921 378.994 190.625ZM378.04 214.453C376.98 213.721 376.446 212.406 376.446 210.498C376.469 208.52 377.008 206.58 378.011 204.859C378.922 203.14 380.306 201.701 382.01 200.7C383.642 199.774 384.968 199.682 386.018 200.376C387.068 201.071 387.583 202.367 387.583 204.266C387.551 206.276 387.003 208.246 385.989 209.998C385.099 211.739 383.72 213.2 382.01 214.212C380.473 215.101 379.156 215.175 378.087 214.453H378.04Z" fill="#455A64"/>
<path d="M177.424 148.44L133.525 173.111L150.96 201.875C151.296 202.652 151.882 203.301 152.63 203.728C154.711 204.867 167.031 211.794 167.709 212.173C168.237 212.469 168.828 212.645 169.436 212.688C170.045 212.731 170.655 212.639 171.222 212.42C171.789 212.2 172.297 211.859 172.708 211.422C173.119 210.985 173.423 210.463 173.597 209.895L192.53 156.942L177.424 148.44Z" fill="#6FA521"/>
<path opacity="0.2" d="M177.424 148.44L133.525 173.111L150.96 201.875C151.296 202.652 151.882 203.301 152.63 203.728C154.711 204.867 167.031 211.794 167.709 212.173C168.237 212.469 168.828 212.645 169.436 212.688C170.045 212.731 170.655 212.639 171.222 212.42C171.789 212.2 172.297 211.859 172.708 211.422C173.119 210.985 173.423 210.463 173.597 209.895L192.53 156.942L177.424 148.44Z" fill="black"/>
<path d="M148.632 181.576L166.067 210.34C166.4 211.071 166.957 211.684 167.661 212.098C168.365 212.511 169.184 212.705 170.005 212.653C170.827 212.6 171.612 212.304 172.254 211.804C172.897 211.304 173.365 210.625 173.597 209.858L192.53 156.905L148.632 181.576Z" fill="#6FA521"/>
<path d="M226.399 0.915933L60.8538 93.6445C59.7439 94.3427 58.8197 95.2854 58.1563 96.3958C57.493 97.5062 57.1093 98.7529 57.0365 100.035V211.526C57.1068 212.803 57.4898 214.045 58.1536 215.15C58.8175 216.255 59.7431 217.19 60.8538 217.878L74.4719 225.287C75.6561 225.865 76.9634 226.166 78.2891 226.166C79.6148 226.166 80.9221 225.865 82.1064 225.287L247.661 132.503C248.769 131.803 249.692 130.86 250.356 129.75C251.019 128.64 251.403 127.394 251.478 126.113V14.6219C251.407 13.345 251.024 12.1029 250.36 10.9982C249.697 9.8935 248.771 8.95799 247.661 8.26902L234.053 0.860369C232.861 0.289171 231.548 -0.00331413 230.219 0.00633472C228.89 0.0159836 227.582 0.327498 226.399 0.915933Z" fill="#6FA521"/>
<path opacity="0.3" d="M251.412 13.9456C251.106 12.0934 249.551 11.4266 247.652 12.4824L82.1159 105.239C80.9879 105.922 80.0635 106.88 79.4343 108.017L58.2389 96.302C58.875 95.233 59.7732 94.3327 60.8537 93.6812L226.408 0.915587C227.593 0.339507 228.9 0.0395508 230.226 0.0395508C231.551 0.0395508 232.858 0.339507 234.043 0.915587L247.652 8.32424C248.654 8.94858 249.507 9.77276 250.155 10.742C250.804 11.7112 251.232 12.8033 251.412 13.9456Z" fill="white"/>
<path d="M78.3082 223.546V112.046C78.381 110.765 78.7647 109.52 79.4281 108.411C80.0916 107.302 81.0158 106.361 82.1255 105.665L247.661 12.9548C249.751 11.7787 251.478 12.7326 251.478 15.0848V126.539C251.403 127.82 251.019 129.066 250.356 130.176C249.692 131.286 248.769 132.229 247.661 132.929L82.1064 225.676C80.0069 226.88 78.3082 225.898 78.3082 223.546Z" fill="#6FA521"/>
<path opacity="0.2" d="M82.1064 225.25C80.9177 225.813 79.6121 226.106 78.2891 226.106C76.9661 226.106 75.6605 225.813 74.4718 225.25L60.8633 217.841C59.7535 217.156 58.8282 216.224 58.1643 215.122C57.5004 214.021 57.117 212.781 57.046 211.507V100.006C57.1138 98.6907 57.5313 97.4146 58.258 96.302L79.4343 107.998C78.7363 109.088 78.3477 110.337 78.3082 111.619V223.11C78.3082 225.268 79.8733 226.509 82.1064 225.25Z" fill="black"/>
<path d="M124.755 134.271L123.104 133.345C122.472 132.995 121.756 132.81 121.028 132.81C120.3 132.81 119.585 132.995 118.953 133.345L108.865 138.995V125.622L127.541 115.166C128.416 114.666 129.14 113.952 129.642 113.096C130.144 112.24 130.407 111.271 130.404 110.286V102.785C130.407 101.8 130.144 100.831 129.642 99.9748C129.14 99.1187 128.416 98.4049 127.541 97.9042C126.658 97.4083 125.656 97.1472 124.636 97.1472C123.615 97.1472 122.613 97.4083 121.73 97.9042L95.8295 112.416C94.2962 113.274 93.0231 114.509 92.1384 115.997C91.2538 117.484 90.7889 119.172 90.7907 120.89V190.522C90.7863 191.508 91.0483 192.479 91.5506 193.337C92.0529 194.195 92.778 194.91 93.6537 195.411C94.5375 195.906 95.5396 196.166 96.5595 196.166C97.5795 196.166 98.5816 195.906 99.4654 195.411L105.926 191.8C106.802 191.298 107.527 190.583 108.029 189.725C108.532 188.867 108.794 187.897 108.789 186.91V159.591L124.688 150.682C125.318 150.327 125.841 149.817 126.204 149.205C126.568 148.592 126.759 147.897 126.759 147.19V137.781C126.772 137.077 126.594 136.382 126.242 135.766C125.89 135.15 125.377 134.634 124.755 134.271Z" fill="#E0E0E0"/>
<path opacity="0.1" d="M100.057 195.078L99.5036 195.393C98.6198 195.886 97.618 196.145 96.5986 196.144C95.5792 196.144 94.5778 195.883 93.6947 195.389C92.8115 194.895 92.0776 194.185 91.5663 193.329C91.055 192.473 90.7842 191.502 90.7811 190.513V120.88C90.7836 119.263 91.2001 117.672 91.9931 116.25L97.8049 119.501C97.0085 120.921 96.5918 122.513 96.5929 124.131V193.115C96.5946 193.508 96.702 193.894 96.9044 194.234C97.1068 194.575 97.3973 194.858 97.7471 195.057C98.097 195.255 98.494 195.361 98.8992 195.365C99.3043 195.369 99.7034 195.27 100.057 195.078Z" fill="black"/>
<path d="M108.865 125.622V145.514L124.736 136.633C124.948 136.512 125.19 136.447 125.436 136.446C125.683 136.445 125.925 136.508 126.139 136.628C126.352 136.747 126.529 136.919 126.651 137.127C126.774 137.335 126.837 137.57 126.835 137.809V147.237C126.835 147.94 126.644 148.631 126.282 149.24C125.921 149.85 125.401 150.356 124.774 150.709L108.865 159.618V186.929C108.869 187.913 108.607 188.88 108.105 189.735C107.602 190.59 106.877 191.302 106.002 191.8L100.124 195.097C99.7709 195.295 99.37 195.4 98.9617 195.401C98.5535 195.401 98.1524 195.297 97.799 195.099C97.4456 194.9 97.1524 194.615 96.949 194.272C96.7456 193.928 96.6392 193.539 96.6406 193.143V124.131C96.6408 122.414 97.1065 120.727 97.9909 119.239C98.8754 117.752 100.147 116.517 101.679 115.657L127.331 101.284C127.651 101.105 128.013 101.011 128.382 101.011C128.751 101.012 129.114 101.106 129.433 101.286C129.752 101.465 130.017 101.723 130.201 102.033C130.385 102.343 130.481 102.695 130.481 103.053V110.304C130.483 111.286 130.22 112.251 129.718 113.102C129.215 113.954 128.491 114.662 127.618 115.157L108.865 125.622Z" fill="#FAFAFA"/>
<path d="M164.273 83.559C163.979 82.5922 163.463 81.7027 162.763 80.9574C162.064 80.2121 161.199 79.6303 160.235 79.256C159.271 78.8816 158.231 78.7243 157.195 78.7959C156.159 78.8675 155.153 79.1662 154.253 79.6695L147.83 83.2719C147.003 83.7346 146.284 84.36 145.721 85.1079C145.157 85.8559 144.761 86.7099 144.557 87.6153L125.404 172.241C125.254 172.954 125.338 173.695 125.644 174.359C125.951 175.024 126.464 175.578 127.112 175.945L128.868 176.927C129.412 177.231 130.029 177.392 130.657 177.392C131.285 177.392 131.903 177.231 132.447 176.927L140.186 172.593C141.263 171.952 142.141 171.04 142.725 169.953C143.377 168.856 143.857 167.67 144.147 166.434L147.258 151.006L162.908 142.236L164.531 148.505C164.76 149.323 165.285 150.033 166.01 150.506C166.659 150.876 171.173 153.386 171.822 153.765C172.241 153.939 172.701 154 173.153 153.942C173.604 153.883 174.032 153.707 174.389 153.432L183.837 148.135L164.273 83.559ZM151.552 129.706L154.902 112.971L155.102 112.045L158.652 125.724L151.552 129.706Z" fill="#E0E0E0"/>
<path opacity="0.1" d="M171.745 153.719C170.896 153.228 166.64 150.867 166.019 150.506C165.295 150.033 164.77 149.323 164.54 148.505L162.918 142.236L167.251 139.809L170.352 151.756C170.581 152.541 171.071 153.232 171.745 153.719Z" fill="black"/>
<path opacity="0.1" d="M164.464 128.974L158.652 125.714L155.102 112.045C155.102 112.045 155.102 112.045 155.102 111.99C155.407 110.656 155.713 109.138 156.056 107.452C156.467 105.35 156.848 103.109 157.211 100.71C157.625 102.636 158.035 104.411 158.442 106.035C158.853 107.656 159.234 109.045 159.597 110.212L164.464 128.974Z" fill="black"/>
<path opacity="0.1" d="M131.321 175.019C131.269 175.241 131.277 175.473 131.346 175.691C131.414 175.909 131.539 176.106 131.709 176.263C131.88 176.42 132.089 176.531 132.317 176.586C132.545 176.64 132.784 176.637 133.01 176.575V176.649L132.466 176.945C131.922 177.25 131.305 177.411 130.676 177.411C130.048 177.411 129.431 177.25 128.887 176.945L127.112 175.945C126.464 175.579 125.951 175.024 125.644 174.36C125.338 173.695 125.254 172.954 125.404 172.241L144.547 87.6526C144.723 86.8701 145.047 86.1259 145.502 85.4578L151.313 88.7176C150.853 89.3795 150.529 90.1217 150.359 90.9031L131.321 175.019Z" fill="black"/>
<path d="M183.846 148.163L174.389 153.46C173.329 154.053 172.48 154.164 171.831 153.793C171.108 153.319 170.583 152.61 170.352 151.793L167.25 139.828L147.21 151.024L144.108 166.453C143.809 167.69 143.327 168.878 142.677 169.981C142.096 171.068 141.218 171.978 140.138 172.611L133.296 176.454C133.066 176.581 132.803 176.641 132.538 176.626C132.274 176.612 132.02 176.523 131.806 176.371C131.592 176.22 131.428 176.012 131.334 175.772C131.239 175.532 131.218 175.27 131.273 175.019L150.311 90.8752C150.516 89.9716 150.913 89.1193 151.477 88.373C152.04 87.6268 152.758 87.0028 153.585 86.5412L159.759 83.0776C160.198 82.8321 160.689 82.6864 161.194 82.6515C161.7 82.6166 162.207 82.6934 162.677 82.8762C163.147 83.059 163.569 83.3429 163.91 83.7066C164.251 84.0704 164.502 84.5044 164.645 84.9761L183.846 148.163ZM164.464 128.993L159.597 110.193C159.234 109.036 158.852 107.637 158.442 106.017C158.032 104.396 157.621 102.618 157.211 100.692C156.858 103.09 156.467 105.322 156.066 107.434C155.665 109.545 155.264 111.36 154.902 112.935L150.073 137.013L164.464 128.993Z" fill="#FAFAFA"/>
<path d="M229.081 115.75C230.747 112.97 232.211 110.079 233.461 107.1C234.752 104.029 235.836 100.88 236.706 97.6728C237.583 94.4318 238.253 91.1409 238.71 87.8193C239.178 84.4644 239.414 81.0828 239.416 77.6972C239.518 72.7197 238.862 67.7548 237.469 62.9633C236.476 59.3625 234.574 56.0587 231.934 53.3505C231.103 52.5778 230.173 51.9117 229.167 51.3687L223.441 48.1459C221.628 47.1262 219.589 46.5449 217.495 46.4512C214.136 46.266 210.414 47.3186 206.33 49.6091C202.055 52.045 198.267 55.207 195.145 58.9441C191.703 62.9991 188.804 67.4613 186.518 72.2241C181.6 82.496 179.034 93.6806 178.998 105.007C178.899 109.992 179.562 114.964 180.964 119.76C181.954 123.371 183.864 126.683 186.518 129.391C187.346 130.188 188.28 130.873 189.295 131.428C190.25 131.947 194.019 134.077 194.954 134.605C196.79 135.636 198.857 136.217 200.976 136.3C204.335 136.46 208.063 135.395 212.161 133.105C213.904 132.128 215.56 131.013 217.114 129.771L219.48 132.41C219.803 132.731 220.169 133.009 220.568 133.234C221.236 133.614 225.989 136.263 226.351 136.476C226.989 136.856 227.734 137.031 228.479 136.976C229.861 136.816 231.189 136.357 232.364 135.633L242.393 130.021L229.081 115.75ZM220.129 92.5053C219.521 95.7726 218.545 98.9651 217.219 102.025C216.055 104.737 214.497 107.273 212.59 109.554C210.849 111.637 208.734 113.397 206.349 114.75C204.601 115.849 202.588 116.487 200.508 116.602C199.462 114.957 198.717 113.149 198.304 111.258C197.57 107.986 197.231 104.642 197.292 101.294C197.274 97.5855 197.613 93.8836 198.304 90.2364C198.896 86.9709 199.856 83.7784 201.167 80.7162C202.341 77.9924 203.909 75.4448 205.824 73.1502C207.577 71.0402 209.711 69.2577 212.122 67.89C213.84 66.8246 215.813 66.2118 217.848 66.1119C218.906 67.771 219.661 69.5942 220.081 71.5017C220.83 74.7787 221.186 78.1287 221.141 81.4849C221.152 85.1929 220.814 88.8942 220.129 92.5423V92.5053Z" fill="#E0E0E0"/>
<path opacity="0.1" d="M194.716 134.503C193.504 133.827 190.173 131.947 189.295 131.465C188.28 130.91 187.346 130.224 186.518 129.428C183.864 126.72 181.954 123.408 180.964 119.797C179.562 115 178.899 110.029 178.998 105.044C178.998 99.3416 179.657 93.6569 180.964 88.097C182.128 83.0336 183.816 78.0972 186.003 73.363L191.815 76.6228C187.225 86.6055 184.839 97.4099 184.81 108.341C184.71 113.323 185.373 118.291 186.776 123.084C187.764 126.699 189.674 130.015 192.33 132.725C193.056 133.401 193.856 133.997 194.716 134.503Z" fill="black"/>
<path opacity="0.1" d="M223.03 68.52C222.469 67.8372 221.768 67.2748 220.971 66.8683C220.175 66.4618 219.3 66.2201 218.402 66.1584C218.24 66.1584 218.068 66.1584 217.906 66.1584C218.958 67.8155 219.71 69.6354 220.129 71.539C220.859 74.8057 221.198 78.143 221.141 81.4851C221.156 85.2117 220.817 88.9317 220.129 92.5981C219.521 95.8654 218.545 99.0579 217.218 102.118C216.055 104.83 214.497 107.366 212.59 109.647C210.849 111.729 208.734 113.489 206.349 114.843C204.601 115.942 202.588 116.58 200.508 116.695C200.716 117.02 200.949 117.329 201.205 117.621C201.765 118.309 202.47 118.872 203.274 119.273C204.077 119.674 204.96 119.904 205.862 119.945C208.102 119.934 210.291 119.291 212.161 118.093C214.546 116.74 216.661 114.98 218.402 112.898C220.304 110.614 221.863 108.079 223.03 105.369C224.358 102.306 225.334 99.11 225.941 95.8394C226.629 92.1731 226.968 88.453 226.953 84.7264C227.008 81.3936 226.668 78.0657 225.941 74.8081C225.486 72.5214 224.49 70.3687 223.03 68.52Z" fill="black"/>
<path opacity="0.1" d="M218.765 128.418C218.221 128.9 217.677 129.345 217.114 129.808L219.48 132.447C219.803 132.768 220.169 133.045 220.568 133.271C221.217 133.642 225.693 136.133 226.294 136.485C225.924 136.264 225.584 136 225.282 135.697L218.765 128.418Z" fill="black"/>
<path d="M242.393 130.058L232.363 135.679C231.189 136.395 229.866 136.851 228.489 137.013C227.888 137.042 227.289 136.938 226.735 136.711C226.182 136.483 225.688 136.137 225.292 135.698L218.764 128.419C216.747 130.221 214.532 131.805 212.161 133.142C208.063 135.432 204.335 136.497 200.976 136.337C197.723 136.221 194.635 134.918 192.33 132.688C189.677 129.975 187.768 126.661 186.776 123.048C185.381 118.266 184.719 113.31 184.81 108.341C184.846 97.0147 187.411 85.83 192.33 75.5581C194.619 70.7847 197.525 66.3129 200.976 62.2503C204.1 58.5153 207.888 55.3537 212.161 52.9154C216.245 50.6187 219.967 49.566 223.326 49.7574C226.565 49.9075 229.629 51.229 231.915 53.4618C234.56 56.1697 236.463 59.4779 237.45 63.0838C238.851 67.8583 239.513 72.8081 239.416 77.7714C239.417 81.1568 239.184 84.5384 238.719 87.8935C238.253 91.2303 237.577 94.5364 236.696 97.7933C235.823 100.998 234.736 104.144 233.442 107.212C232.196 110.192 230.732 113.083 229.062 115.861L242.393 130.058ZM197.292 101.349C197.231 104.701 197.57 108.048 198.304 111.323C198.754 113.598 199.733 115.742 201.167 117.593C201.73 118.277 202.437 118.838 203.239 119.238C204.042 119.639 204.923 119.87 205.824 119.917C208.064 119.905 210.252 119.262 212.122 118.065C214.508 116.712 216.622 114.952 218.364 112.87C220.269 110.586 221.831 108.051 223.002 105.341C224.313 102.276 225.273 99.0803 225.865 95.8115C226.558 92.1459 226.897 88.4254 226.876 84.6985C226.936 81.3655 226.597 78.0371 225.865 74.7802C225.417 72.5053 224.438 70.3603 223.002 68.5106C222.438 67.8275 221.736 67.2651 220.937 66.8586C220.139 66.4522 219.263 66.2106 218.364 66.1491C216.148 66.1315 213.977 66.7501 212.122 67.9272C209.709 69.2886 207.574 71.0684 205.824 73.1781C203.913 75.475 202.345 78.0221 201.167 80.7441C199.861 83.8078 198.901 86.9998 198.304 90.2643C197.614 93.9085 197.275 97.6072 197.292 101.312V101.349Z" fill="#FAFAFA"/>
</svg>
