<svg width="24" height="25" viewBox="0 0 24 25" fill="none" xmlns="http://www.w3.org/2000/svg">
<path d="M8.50078 11.7563C8.50078 9.96241 9.95546 8.50782 11.7504 8.50782C13.5453 8.50782 15.0008 9.96241 15.0008 11.7563C15.0008 13.5501 13.5453 15.0047 11.7504 15.0047C9.95546 15.0047 8.50078 13.5501 8.50078 11.7563ZM6.74368 11.7563C6.74368 14.5198 8.98518 16.76 11.7504 16.76C14.5156 16.76 16.7571 14.5198 16.7571 11.7563C16.7571 8.99271 14.5156 6.75256 11.7504 6.75256C8.98518 6.75256 6.74368 8.99271 6.74368 11.7563ZM15.7853 6.55416C15.7852 6.78543 15.8537 7.01154 15.9822 7.20389C16.1107 7.39624 16.2934 7.54619 16.5071 7.63478C16.7209 7.72337 16.9561 7.74662 17.1831 7.70159C17.4101 7.65656 17.6186 7.54528 17.7823 7.38181C17.946 7.21834 18.0575 7.01002 18.1028 6.78321C18.148 6.5564 18.1249 6.32127 18.0365 6.10757C17.948 5.89386 17.7981 5.71118 17.6057 5.58261C17.4134 5.45404 17.1872 5.38537 16.9558 5.38528H16.9553C16.6451 5.38542 16.3477 5.50861 16.1283 5.72777C15.9089 5.94693 15.7855 6.24415 15.7853 6.55416ZM7.81123 19.6881C6.86061 19.6448 6.34392 19.4866 6.00055 19.3529C5.54532 19.1758 5.22051 18.9648 4.87902 18.624C4.53752 18.2832 4.32613 17.9589 4.14969 17.5039C4.01583 17.1609 3.85749 16.6444 3.81427 15.6943C3.767 14.6672 3.75757 14.3586 3.75757 11.7563C3.75757 9.15408 3.76778 8.84639 3.81427 7.81838C3.85757 6.86832 4.01708 6.3528 4.14969 6.00877C4.32691 5.55382 4.53799 5.22921 4.87902 4.88792C5.22005 4.54663 5.54454 4.33536 6.00055 4.15903C6.34376 4.02525 6.86061 3.867 7.81123 3.82381C8.839 3.77657 9.14774 3.76714 11.7504 3.76714C14.353 3.76714 14.6621 3.77735 15.6907 3.82381C16.6413 3.86708 17.1572 4.0265 17.5014 4.15903C17.9566 4.33536 18.2814 4.54709 18.6229 4.88792C18.9644 5.22874 19.175 5.55382 19.3523 6.00877C19.4861 6.35178 19.6445 6.86832 19.6877 7.81838C19.7349 8.84639 19.7444 9.15408 19.7444 11.7563C19.7444 14.3586 19.7349 14.6663 19.6877 15.6943C19.6444 16.6444 19.4853 17.1607 19.3523 17.5039C19.175 17.9589 18.964 18.2835 18.6229 18.624C18.2819 18.9645 17.9566 19.1758 17.5014 19.3529C17.1582 19.4866 16.6413 19.6449 15.6907 19.6881C14.6629 19.7353 14.3542 19.7448 11.7504 19.7448C9.14657 19.7448 8.83869 19.7353 7.81123 19.6881ZM7.7305 2.07073C6.69251 2.11797 5.98323 2.28246 5.36381 2.52335C4.72231 2.7721 4.17925 3.10584 3.63658 3.64732C3.09392 4.18881 2.76084 4.7324 2.51193 5.37351C2.2709 5.99295 2.10632 6.70142 2.05905 7.73878C2.011 8.77778 2 9.10996 2 11.7563C2 14.4026 2.011 14.7347 2.05905 15.7737C2.10632 16.8112 2.2709 17.5196 2.51193 18.139C2.76084 18.7797 3.09399 19.324 3.63658 19.8652C4.17917 20.4065 4.72231 20.7397 5.36381 20.9892C5.9844 21.2301 6.69251 21.3946 7.7305 21.4418C8.77067 21.489 9.1025 21.5008 11.7504 21.5008C14.3983 21.5008 14.7307 21.4898 15.7703 21.4418C16.8083 21.3946 17.5172 21.2301 18.137 20.9892C18.7781 20.7397 19.3215 20.4067 19.8642 19.8652C20.4069 19.3237 20.7392 18.7797 20.9888 18.139C21.2299 17.5196 21.3952 16.8111 21.4417 15.7737C21.489 14.734 21.5 14.4026 21.5 11.7563C21.5 9.10996 21.489 8.77778 21.4417 7.73878C21.3945 6.70134 21.2299 5.99256 20.9888 5.37351C20.7392 4.73278 20.406 4.18966 19.8642 3.64732C19.3224 3.10498 18.7781 2.7721 18.1378 2.52335C17.5172 2.28246 16.8083 2.11719 15.7711 2.07073C14.7314 2.02349 14.3991 2.01172 11.7512 2.01172C9.10328 2.01172 8.77067 2.02271 7.7305 2.07073Z" fill="white"/>
</svg>
