<svg width="40" height="40" viewBox="0 0 40 40" fill="none" xmlns="http://www.w3.org/2000/svg">
<path d="M20 36.6667C17.7223 36.6667 15.5695 36.2289 13.5417 35.3534C11.5139 34.4778 9.74337 33.2834 8.23004 31.77C6.71671 30.2567 5.52226 28.4862 4.64671 26.4584C3.77115 24.4306 3.33337 22.2778 3.33337 20C3.33337 17.6945 3.77115 15.535 4.64671 13.5217C5.52226 11.5084 6.71671 9.74449 8.23004 8.23004C9.74337 6.7156 11.5139 5.52115 13.5417 4.64671C15.5695 3.77226 17.7223 3.33449 20 3.33337C22.3056 3.33337 24.4656 3.77115 26.48 4.64671C28.4945 5.52226 30.2578 6.71671 31.77 8.23004C33.2823 9.74337 34.4767 11.5073 35.3534 13.5217C36.23 15.5362 36.6678 17.6956 36.6667 20C36.6667 22.2778 36.2289 24.4306 35.3534 26.4584C34.4778 28.4862 33.2834 30.2573 31.77 31.7717C30.2567 33.2861 28.4928 34.4806 26.4784 35.355C24.4639 36.2295 22.3045 36.6667 20 36.6667ZM20 33.25C20.7223 32.25 21.3473 31.2084 21.875 30.125C22.4028 29.0417 22.8334 27.8889 23.1667 26.6667H16.8334C17.1667 27.8889 17.5973 29.0417 18.125 30.125C18.6528 31.2084 19.2778 32.25 20 33.25ZM15.6667 32.5834C15.1667 31.6667 14.7295 30.715 14.355 29.7284C13.9806 28.7417 13.6678 27.7212 13.4167 26.6667H8.50004C9.3056 28.0556 10.3128 29.2639 11.5217 30.2917C12.7306 31.3195 14.1123 32.0834 15.6667 32.5834ZM24.3334 32.5834C25.8889 32.0834 27.2712 31.3195 28.48 30.2917C29.6889 29.2639 30.6956 28.0556 31.5 26.6667H26.5834C26.3334 27.7223 26.0212 28.7434 25.6467 29.73C25.2723 30.7167 24.8345 31.6678 24.3334 32.5834ZM7.08337 23.3334H12.75C12.6667 22.7778 12.6045 22.2295 12.5634 21.6884C12.5223 21.1473 12.5012 20.5845 12.5 20C12.4989 19.4156 12.52 18.8534 12.5634 18.3134C12.6067 17.7734 12.6689 17.2245 12.75 16.6667H7.08337C6.94448 17.2223 6.8406 17.7712 6.77171 18.3134C6.70282 18.8556 6.66782 19.4178 6.66671 20C6.6656 20.5823 6.7006 21.145 6.77171 21.6884C6.84282 22.2317 6.94671 22.78 7.08337 23.3334ZM16.0834 23.3334H23.9167C24 22.7778 24.0628 22.2295 24.105 21.6884C24.1473 21.1473 24.1678 20.5845 24.1667 20C24.1656 19.4156 24.1445 18.8534 24.1034 18.3134C24.0623 17.7734 24 17.2245 23.9167 16.6667H16.0834C16 17.2223 15.9378 17.7712 15.8967 18.3134C15.8556 18.8556 15.8345 19.4178 15.8334 20C15.8323 20.5823 15.8534 21.145 15.8967 21.6884C15.94 22.2317 16.0023 22.78 16.0834 23.3334ZM27.25 23.3334H32.9167C33.0556 22.7778 33.16 22.2295 33.23 21.6884C33.3 21.1473 33.3345 20.5845 33.3334 20C33.3323 19.4156 33.2978 18.8534 33.23 18.3134C33.1623 17.7734 33.0578 17.2245 32.9167 16.6667H27.25C27.3334 17.2223 27.3962 17.7712 27.4384 18.3134C27.4806 18.8556 27.5012 19.4178 27.5 20C27.4989 20.5823 27.4778 21.145 27.4367 21.6884C27.3956 22.2317 27.3334 22.78 27.25 23.3334ZM26.5834 13.3334H31.5C30.6945 11.9445 29.6878 10.7362 28.48 9.70837C27.2723 8.6806 25.89 7.91671 24.3334 7.41671C24.8334 8.33337 25.2712 9.28504 25.6467 10.2717C26.0223 11.2584 26.3345 12.2789 26.5834 13.3334ZM16.8334 13.3334H23.1667C22.8334 12.1112 22.4028 10.9584 21.875 9.87504C21.3473 8.79171 20.7223 7.75004 20 6.75004C19.2778 7.75004 18.6528 8.79171 18.125 9.87504C17.5973 10.9584 17.1667 12.1112 16.8334 13.3334ZM8.50004 13.3334H13.4167C13.6667 12.2778 13.9795 11.2567 14.355 10.27C14.7306 9.28337 15.1678 8.33226 15.6667 7.41671C14.1112 7.91671 12.7289 8.6806 11.52 9.70837C10.3112 10.7362 9.30448 11.9445 8.50004 13.3334Z" fill="#A00B9B"/>
</svg>
