<svg width="24" height="25" viewBox="0 0 24 25" fill="none" xmlns="http://www.w3.org/2000/svg">
<path fill-rule="evenodd" clip-rule="evenodd" d="M3.44117 2.01172C2.64548 2.01172 2 2.63755 2 3.40856V20.1153C2 20.8864 2.64556 21.5117 3.44117 21.5117H20.0588C20.8548 21.5117 21.5 20.8863 21.5 20.1151V3.40856C21.5 2.63755 20.8548 2.01172 20.0588 2.01172H3.44117ZM7.9257 9.55174V18.3307H5.00771V9.55174H7.9257ZM8.11804 6.83674C8.11804 7.6792 7.48467 8.35332 6.46732 8.35332L6.4482 8.35325C5.46886 8.35325 4.83572 7.67913 4.83572 6.83667C4.83572 5.97509 5.48798 5.31978 6.48667 5.31978C7.48467 5.31978 8.099 5.97509 8.11804 6.83674ZM12.4586 18.3307H9.54085C9.54085 18.3307 9.57909 10.3756 9.54101 9.55204H12.4588V10.7947C12.8467 10.1966 13.5409 9.34592 15.0887 9.34592C17.0084 9.34592 18.4478 10.6007 18.4478 13.2971V18.3307H15.5301V13.6347C15.5301 12.4544 15.1076 11.6494 14.052 11.6494C13.2457 11.6494 12.7656 12.1923 12.5547 12.7168C12.4777 12.9039 12.4586 13.1666 12.4586 13.4287V18.3307Z" fill="white"/>
</svg>
