<svg width="21" height="25" viewBox="0 0 21 25" fill="none" xmlns="http://www.w3.org/2000/svg">
<path d="M9.80482 11.4734L0.0895996 22.0176C0.0905121 22.0195 0.090512 22.0223 0.0914244 22.0242C0.389807 23.1691 1.41179 24.0117 2.62539 24.0117C3.11083 24.0117 3.56616 23.8773 3.95671 23.6422L3.98773 23.6235L14.9229 17.171L9.80482 11.4734Z" fill="#EA4335"/>
<path d="M19.633 9.67791L19.6239 9.67137L14.9027 6.87295L9.58386 11.713L14.9219 17.1699L19.6175 14.3995C20.4406 13.9441 20.9999 13.0567 20.9999 12.034C20.9999 11.0169 20.4488 10.1342 19.633 9.67791Z" fill="#FBBC04"/>
<path d="M0.0894234 2.00497C0.0310244 2.22518 0 2.4566 0 2.69548V21.328C0 21.5669 0.0310245 21.7983 0.0903359 22.0176L10.1386 11.743L0.0894234 2.00497Z" fill="#4285F4"/>
<path d="M9.87654 12.0117L14.9043 6.87116L3.98189 0.395317C3.58496 0.151772 3.12142 0.0118055 2.62594 0.0118055C1.41233 0.0118055 0.388528 0.856278 0.0901454 2.00215C0.0901454 2.00308 0.0892334 2.00401 0.0892334 2.00495L9.87654 12.0117Z" fill="#34A853"/>
</svg>
