<svg width="25" height="24" viewBox="0 0 25 24" fill="none" xmlns="http://www.w3.org/2000/svg">
<path d="M6.89007 12.5654H11.4855V17.1609C11.4855 17.6279 11.8697 18.0197 12.3443 18.0197C12.8189 18.0197 13.2031 17.6279 13.2031 17.1609V12.5654H17.7985C18.2656 12.5654 18.6574 12.1812 18.6574 11.7066C18.6574 11.232 18.2656 10.8478 17.7985 10.8478H13.2031V6.25237C13.2031 5.7853 12.8189 5.39355 12.3443 5.39355C11.8697 5.39355 11.4855 5.7853 11.4855 6.25237V10.8478H6.89007C6.42299 10.8478 6.03125 11.232 6.03125 11.7066C6.03125 12.1812 6.42299 12.5654 6.89007 12.5654Z" fill="#05182E"/>
</svg>
