<svg width="40" height="40" viewBox="0 0 40 40" fill="none" xmlns="http://www.w3.org/2000/svg">
<g filter="url(#filter0_i_4009_3995)">
<path d="M5.55249 26.1038C5.55249 18.165 11.9887 11.7288 19.9275 11.7288H20.6312C28.5687 11.7288 35.0062 18.165 35.0062 26.1038V26.4613C35.0062 29.3786 33.8473 32.1765 31.7844 34.2394C29.7215 36.3023 26.9236 37.4613 24.0062 37.4613H16.5525C13.6351 37.4613 10.8372 36.3023 8.77432 34.2394C6.71142 32.1765 5.55249 29.3786 5.55249 26.4613V26.1038Z" fill="url(#paint0_radial_4009_3995)"/>
<path d="M5.55249 26.1038C5.55249 18.165 11.9887 11.7288 19.9275 11.7288H20.6312C28.5687 11.7288 35.0062 18.165 35.0062 26.1038V26.4613C35.0062 29.3786 33.8473 32.1765 31.7844 34.2394C29.7215 36.3023 26.9236 37.4613 24.0062 37.4613H16.5525C13.6351 37.4613 10.8372 36.3023 8.77432 34.2394C6.71142 32.1765 5.55249 29.3786 5.55249 26.4613V26.1038Z" fill="url(#paint1_radial_4009_3995)"/>
</g>
<path d="M5.55249 26.1038C5.55249 18.165 11.9887 11.7288 19.9275 11.7288H20.6312C28.5687 11.7288 35.0062 18.165 35.0062 26.1038V26.4613C35.0062 29.3786 33.8473 32.1765 31.7844 34.2394C29.7215 36.3023 26.9236 37.4613 24.0062 37.4613H16.5525C13.6351 37.4613 10.8372 36.3023 8.77432 34.2394C6.71142 32.1765 5.55249 29.3786 5.55249 26.4613V26.1038Z" fill="url(#paint2_radial_4009_3995)"/>
<path d="M5.55249 26.1038C5.55249 18.165 11.9887 11.7288 19.9275 11.7288H20.6312C28.5687 11.7288 35.0062 18.165 35.0062 26.1038V26.4613C35.0062 29.3786 33.8473 32.1765 31.7844 34.2394C29.7215 36.3023 26.9236 37.4613 24.0062 37.4613H16.5525C13.6351 37.4613 10.8372 36.3023 8.77432 34.2394C6.71142 32.1765 5.55249 29.3786 5.55249 26.4613V26.1038Z" fill="url(#paint3_radial_4009_3995)"/>
<g filter="url(#filter1_ii_4009_3995)">
<path d="M15.2013 5.86873C15.7888 6.86998 16.645 8.15498 17.745 9.20873H22.8138C23.9138 8.15498 24.7688 6.87123 25.3575 5.86873C25.428 5.74581 25.4725 5.60977 25.4883 5.46899C25.5042 5.32821 25.491 5.18568 25.4497 5.05018C25.4083 4.91468 25.3397 4.78908 25.2479 4.68113C25.1562 4.57317 25.0433 4.48515 24.9163 4.42248C24.5163 4.21748 24.0463 4.31498 23.6575 4.54123C22.78 5.05248 22.2738 4.44998 21.5 3.26623C21.1113 2.67123 20.5175 2.63998 20.2788 2.63623C20.0413 2.63998 19.4475 2.67123 19.0588 3.26623C18.2838 4.44998 17.7788 5.05248 16.9013 4.54123C16.5125 4.31498 16.0425 4.21748 15.6413 4.42248C15.5143 4.48526 15.4016 4.57337 15.31 4.68138C15.2184 4.78938 15.1499 4.915 15.1086 5.05049C15.0674 5.18598 15.0544 5.32847 15.0703 5.46919C15.0862 5.60992 15.1308 5.74589 15.2013 5.86873Z" fill="url(#paint4_linear_4009_3995)"/>
</g>
<g filter="url(#filter2_f_4009_3995)">
<path d="M20.9999 17.8225C20.9999 17.5573 20.8946 17.3029 20.707 17.1154C20.5195 16.9279 20.2651 16.8225 19.9999 16.8225C19.7347 16.8225 19.4804 16.9279 19.2928 17.1154C19.1053 17.3029 18.9999 17.5573 18.9999 17.8225V18.7663C18.9999 18.99 18.8499 19.1838 18.6412 19.2638C18.2803 19.4002 17.9403 19.5866 17.6312 19.8175C17.1755 20.1514 16.8063 20.5897 16.5547 21.0955C16.3031 21.6013 16.1763 22.1601 16.1849 22.725C16.1849 24.05 16.7824 25.01 17.5937 25.625C18.3662 26.2125 19.2999 26.465 20.0437 26.5325C20.3462 26.56 20.7974 26.6413 21.1699 26.8763C21.4937 27.08 21.8149 27.4288 21.8824 28.1763C21.9474 28.8913 21.6574 29.3163 21.2787 29.605C20.8412 29.9388 20.3324 30.045 20.2037 30.045C19.9024 30.045 19.3862 30.005 18.9487 29.7675C18.5812 29.5675 18.1862 29.1913 18.1037 28.27C18.08 28.0058 17.9523 27.7618 17.7487 27.5917C17.5451 27.4217 17.2823 27.3394 17.0181 27.3631C16.7538 27.3868 16.5099 27.5145 16.3398 27.7181C16.1697 27.9217 16.0875 28.1845 16.1112 28.4488C16.2537 30.0475 17.0487 31.0113 17.9949 31.5263C18.2049 31.6379 18.4137 31.7283 18.6212 31.7975C18.7291 31.8308 18.8238 31.8973 18.8918 31.9875C18.9598 32.0777 18.9976 32.1871 18.9999 32.3V33.1538C18.9999 33.419 19.1053 33.6733 19.2928 33.8609C19.4804 34.0484 19.7347 34.1538 19.9999 34.1538C20.2651 34.1538 20.5195 34.0484 20.707 33.8609C20.8946 33.6733 20.9999 33.419 20.9999 33.1538V32.3088C20.9999 32.0838 21.1524 31.8875 21.3649 31.8088C21.7399 31.6713 22.1324 31.4688 22.4899 31.1963C23.3212 30.5625 24.0124 29.5088 23.8749 27.9963C23.7474 26.595 23.0449 25.7513 22.2249 25.2338C21.6068 24.8584 20.913 24.6253 20.1937 24.5513C19.0574 24.4925 18.1849 23.865 18.1849 22.725C18.1849 22.0975 18.4349 21.6375 18.8024 21.3625C19.5637 20.7175 20.8574 20.805 21.4687 21.615C21.7387 21.9738 21.8599 22.3688 21.8874 22.725C21.9299 23.275 22.4062 23.7138 22.9574 23.6713C23.5074 23.63 23.9187 23.1988 23.8762 22.6475C23.8163 21.8559 23.5333 21.0974 23.0599 20.46C22.6799 19.955 21.9612 19.4725 21.3724 19.23C21.2662 19.1901 21.1742 19.1197 21.1079 19.0276C21.0416 18.9355 21.004 18.8259 20.9999 18.7125V17.8225Z" fill="url(#paint5_linear_4009_3995)"/>
</g>
<g filter="url(#filter3_ii_4009_3995)">
<path d="M21.25 17.6949C21.25 17.4297 21.1446 17.1754 20.9571 16.9878C20.7696 16.8003 20.5152 16.6949 20.25 16.6949C19.9848 16.6949 19.7304 16.8003 19.5429 16.9878C19.3554 17.1754 19.25 17.4297 19.25 17.6949V18.6387C19.25 18.8637 19.1 19.0562 18.8912 19.1362C18.531 19.2741 18.1912 19.4604 17.8812 19.6899C17.4258 20.024 17.0569 20.4623 16.8055 20.9681C16.5541 21.474 16.4275 22.0326 16.4362 22.5974C16.4362 23.9224 17.0325 24.8824 17.8437 25.4974C18.6162 26.0849 19.5487 26.3387 20.2937 26.4062C20.5962 26.4337 21.0475 26.5137 21.4212 26.7487C21.7437 26.9524 22.065 27.3012 22.1337 28.0487C22.1987 28.7649 21.9075 29.1899 21.5275 29.4787C21.09 29.8124 20.5825 29.9174 20.4525 29.9174C20.1525 29.9174 19.6362 29.8774 19.1987 29.6412C18.8312 29.4412 18.4362 29.0637 18.3537 28.1437C18.3421 28.0129 18.3048 27.8856 18.2439 27.7692C18.1831 27.6528 18.0999 27.5495 17.9992 27.4652C17.8984 27.381 17.7821 27.3174 17.6567 27.2781C17.5314 27.2388 17.3996 27.2245 17.2687 27.2362C17.1379 27.2479 17.0107 27.2852 16.8943 27.346C16.7778 27.4068 16.6746 27.49 16.5903 27.5907C16.506 27.6915 16.4424 27.8079 16.4031 27.9332C16.3638 28.0585 16.3496 28.1904 16.3612 28.3212C16.5037 29.9212 17.2987 30.8849 18.245 31.3987C18.455 31.5112 18.6637 31.6016 18.8712 31.6699C19.09 31.7449 19.25 31.9424 19.25 32.1737V33.0274C19.25 33.2927 19.3554 33.547 19.5429 33.7346C19.7304 33.9221 19.9848 34.0274 20.25 34.0274C20.5152 34.0274 20.7696 33.9221 20.9571 33.7346C21.1446 33.547 21.25 33.2927 21.25 33.0274V32.1824C21.25 31.9562 21.4025 31.7612 21.615 31.6824C21.99 31.5449 22.3825 31.3424 22.74 31.0699C23.5712 30.4362 24.2625 29.3812 24.125 27.8687C23.9975 26.4674 23.295 25.6249 22.475 25.1062C21.8569 24.7309 21.1631 24.4977 20.4437 24.4237C19.3075 24.3649 18.435 23.7374 18.435 22.5987C18.435 21.9712 18.685 21.5112 19.0525 21.2362C19.8137 20.5912 21.1075 20.6787 21.7187 21.4887C21.9887 21.8474 22.11 22.2424 22.1375 22.5974C22.18 23.1474 22.6562 23.5874 23.2075 23.5449C23.7575 23.5024 24.1687 23.0712 24.1262 22.5199C24.0664 21.7283 23.7834 20.9698 23.31 20.3324C22.93 19.8287 22.2112 19.3449 21.6225 19.1024C21.5163 19.0626 21.4242 18.9921 21.3579 18.9001C21.2917 18.808 21.2541 18.6983 21.25 18.5849V17.6949Z" fill="url(#paint6_linear_4009_3995)"/>
</g>
<g filter="url(#filter4_i_4009_3995)">
<path d="M22.52 9.20874H17.98C17.2544 9.20874 16.6663 9.79693 16.6663 10.5225V10.5312C16.6663 11.2568 17.2544 11.845 17.98 11.845H22.52C23.2456 11.845 23.8338 11.2568 23.8338 10.5312V10.5225C23.8338 9.79693 23.2456 9.20874 22.52 9.20874Z" fill="url(#paint7_linear_4009_3995)"/>
<path d="M22.52 9.20874H17.98C17.2544 9.20874 16.6663 9.79693 16.6663 10.5225V10.5312C16.6663 11.2568 17.2544 11.845 17.98 11.845H22.52C23.2456 11.845 23.8338 11.2568 23.8338 10.5312V10.5225C23.8338 9.79693 23.2456 9.20874 22.52 9.20874Z" fill="url(#paint8_radial_4009_3995)"/>
</g>
<path d="M22.52 9.20874H17.98C17.2544 9.20874 16.6663 9.79693 16.6663 10.5225V10.5312C16.6663 11.2568 17.2544 11.845 17.98 11.845H22.52C23.2456 11.845 23.8338 11.2568 23.8338 10.5312V10.5225C23.8338 9.79693 23.2456 9.20874 22.52 9.20874Z" fill="url(#paint9_radial_4009_3995)"/>
<defs>
<filter id="filter0_i_4009_3995" x="5.55249" y="10.9788" width="29.9537" height="26.4825" filterUnits="userSpaceOnUse" color-interpolation-filters="sRGB">
<feFlood flood-opacity="0" result="BackgroundImageFix"/>
<feBlend mode="normal" in="SourceGraphic" in2="BackgroundImageFix" result="shape"/>
<feColorMatrix in="SourceAlpha" type="matrix" values="0 0 0 0 0 0 0 0 0 0 0 0 0 0 0 0 0 0 127 0" result="hardAlpha"/>
<feOffset dx="0.5" dy="-0.75"/>
<feGaussianBlur stdDeviation="0.875"/>
<feComposite in2="hardAlpha" operator="arithmetic" k2="-1" k3="1"/>
<feColorMatrix type="matrix" values="0 0 0 0 0.713726 0 0 0 0 0.321569 0 0 0 0 0.211765 0 0 0 1 0"/>
<feBlend mode="normal" in2="shape" result="effect1_innerShadow_4009_3995"/>
</filter>
<filter id="filter1_ii_4009_3995" x="14.9637" y="2.51123" width="10.5812" height="6.79751" filterUnits="userSpaceOnUse" color-interpolation-filters="sRGB">
<feFlood flood-opacity="0" result="BackgroundImageFix"/>
<feBlend mode="normal" in="SourceGraphic" in2="BackgroundImageFix" result="shape"/>
<feColorMatrix in="SourceAlpha" type="matrix" values="0 0 0 0 0 0 0 0 0 0 0 0 0 0 0 0 0 0 127 0" result="hardAlpha"/>
<feOffset dx="-0.1" dy="0.1"/>
<feGaussianBlur stdDeviation="0.075"/>
<feComposite in2="hardAlpha" operator="arithmetic" k2="-1" k3="1"/>
<feColorMatrix type="matrix" values="0 0 0 0 1 0 0 0 0 0.92549 0 0 0 0 0.403922 0 0 0 1 0"/>
<feBlend mode="normal" in2="shape" result="effect1_innerShadow_4009_3995"/>
<feColorMatrix in="SourceAlpha" type="matrix" values="0 0 0 0 0 0 0 0 0 0 0 0 0 0 0 0 0 0 127 0" result="hardAlpha"/>
<feOffset dx="0.05" dy="-0.125"/>
<feGaussianBlur stdDeviation="0.125"/>
<feComposite in2="hardAlpha" operator="arithmetic" k2="-1" k3="1"/>
<feColorMatrix type="matrix" values="0 0 0 0 0.788235 0 0 0 0 0.364706 0 0 0 0 0.12549 0 0 0 1 0"/>
<feBlend mode="normal" in2="effect1_innerShadow_4009_3995" result="effect2_innerShadow_4009_3995"/>
</filter>
<filter id="filter2_f_4009_3995" x="15.9572" y="16.6725" width="8.08528" height="17.6313" filterUnits="userSpaceOnUse" color-interpolation-filters="sRGB">
<feFlood flood-opacity="0" result="BackgroundImageFix"/>
<feBlend mode="normal" in="SourceGraphic" in2="BackgroundImageFix" result="shape"/>
<feGaussianBlur stdDeviation="0.075" result="effect1_foregroundBlur_4009_3995"/>
</filter>
<filter id="filter3_ii_4009_3995" x="16.3073" y="16.5949" width="7.91028" height="17.5075" filterUnits="userSpaceOnUse" color-interpolation-filters="sRGB">
<feFlood flood-opacity="0" result="BackgroundImageFix"/>
<feBlend mode="normal" in="SourceGraphic" in2="BackgroundImageFix" result="shape"/>
<feColorMatrix in="SourceAlpha" type="matrix" values="0 0 0 0 0 0 0 0 0 0 0 0 0 0 0 0 0 0 127 0" result="hardAlpha"/>
<feOffset dx="0.075" dy="-0.1"/>
<feGaussianBlur stdDeviation="0.075"/>
<feComposite in2="hardAlpha" operator="arithmetic" k2="-1" k3="1"/>
<feColorMatrix type="matrix" values="0 0 0 0 0.352941 0 0 0 0 0.168627 0 0 0 0 0.188235 0 0 0 1 0"/>
<feBlend mode="normal" in2="shape" result="effect1_innerShadow_4009_3995"/>
<feColorMatrix in="SourceAlpha" type="matrix" values="0 0 0 0 0 0 0 0 0 0 0 0 0 0 0 0 0 0 127 0" result="hardAlpha"/>
<feOffset dx="-0.05" dy="0.075"/>
<feGaussianBlur stdDeviation="0.055"/>
<feComposite in2="hardAlpha" operator="arithmetic" k2="-1" k3="1"/>
<feColorMatrix type="matrix" values="0 0 0 0 0.670588 0 0 0 0 0.458824 0 0 0 0 0.403922 0 0 0 1 0"/>
<feBlend mode="normal" in2="effect1_innerShadow_4009_3995" result="effect2_innerShadow_4009_3995"/>
</filter>
<filter id="filter4_i_4009_3995" x="16.6663" y="8.90874" width="7.16748" height="2.93623" filterUnits="userSpaceOnUse" color-interpolation-filters="sRGB">
<feFlood flood-opacity="0" result="BackgroundImageFix"/>
<feBlend mode="normal" in="SourceGraphic" in2="BackgroundImageFix" result="shape"/>
<feColorMatrix in="SourceAlpha" type="matrix" values="0 0 0 0 0 0 0 0 0 0 0 0 0 0 0 0 0 0 127 0" result="hardAlpha"/>
<feOffset dy="-0.3"/>
<feGaussianBlur stdDeviation="0.25"/>
<feComposite in2="hardAlpha" operator="arithmetic" k2="-1" k3="1"/>
<feColorMatrix type="matrix" values="0 0 0 0 0.388235 0 0 0 0 0.223529 0 0 0 0 0.109804 0 0 0 1 0"/>
<feBlend mode="normal" in2="shape" result="effect1_innerShadow_4009_3995"/>
</filter>
<radialGradient id="paint0_radial_4009_3995" cx="0" cy="0" r="1" gradientUnits="userSpaceOnUse" gradientTransform="translate(24.3014 14.1415) rotate(100.07) scale(23.0107 24.1011)">
<stop stop-color="#F6C93B"/>
<stop offset="1" stop-color="#E88340"/>
</radialGradient>
<radialGradient id="paint1_radial_4009_3995" cx="0" cy="0" r="1" gradientUnits="userSpaceOnUse" gradientTransform="translate(30.0842 17.7336) rotate(133.199) scale(8.78794 14.7232)">
<stop stop-color="#FFE065"/>
<stop offset="1" stop-color="#FFE065" stop-opacity="0"/>
</radialGradient>
<radialGradient id="paint2_radial_4009_3995" cx="0" cy="0" r="1" gradientUnits="userSpaceOnUse" gradientTransform="translate(7.58374 17.735) rotate(31.6513) scale(6.69965 16.6041)">
<stop offset="0.187" stop-color="#FFA45D"/>
<stop offset="1" stop-color="#FFA45D" stop-opacity="0"/>
</radialGradient>
<radialGradient id="paint3_radial_4009_3995" cx="0" cy="0" r="1" gradientUnits="userSpaceOnUse" gradientTransform="translate(20.2787 31.5625) rotate(-90) scale(20.3906 30.7215)">
<stop offset="0.928" stop-color="#F3BD46" stop-opacity="0"/>
<stop offset="0.98" stop-color="#917011"/>
</radialGradient>
<linearGradient id="paint4_linear_4009_3995" x1="21.8463" y1="4.86373" x2="20.2788" y2="9.20873" gradientUnits="userSpaceOnUse">
<stop stop-color="#F3C048"/>
<stop offset="1" stop-color="#E67A41"/>
</linearGradient>
<linearGradient id="paint5_linear_4009_3995" x1="19.9999" y1="17.2363" x2="19.9999" y2="33.2525" gradientUnits="userSpaceOnUse">
<stop stop-color="#A6782C"/>
<stop offset="1" stop-color="#B95940"/>
</linearGradient>
<linearGradient id="paint6_linear_4009_3995" x1="24.5762" y1="27.3437" x2="16.3575" y2="27.3437" gradientUnits="userSpaceOnUse">
<stop stop-color="#9D6360"/>
<stop offset="1" stop-color="#724A4D"/>
</linearGradient>
<linearGradient id="paint7_linear_4009_3995" x1="17.6625" y1="10.5275" x2="23.8338" y2="10.5275" gradientUnits="userSpaceOnUse">
<stop stop-color="#834B41"/>
<stop offset="1" stop-color="#735854"/>
</linearGradient>
<radialGradient id="paint8_radial_4009_3995" cx="0" cy="0" r="1" gradientUnits="userSpaceOnUse" gradientTransform="translate(22.5838 10.1175) rotate(180) scale(2.33399 1.75781)">
<stop stop-color="#7D5A54"/>
<stop offset="1" stop-color="#7D5A54" stop-opacity="0"/>
</radialGradient>
<radialGradient id="paint9_radial_4009_3995" cx="0" cy="0" r="1" gradientUnits="userSpaceOnUse" gradientTransform="translate(22.8963 10.5275) rotate(180) scale(6.91406 5.53879)">
<stop offset="0.695" stop-color="#B3624D" stop-opacity="0"/>
<stop offset="0.96" stop-color="#B3624D"/>
</radialGradient>
</defs>
</svg>
