<svg width="127" height="126" viewBox="0 0 127 126" fill="none" xmlns="http://www.w3.org/2000/svg">
<path d="M56.5229 30.8877C58.2026 23.452 68.7974 23.452 70.4771 30.8877C71.5656 35.7069 77.0959 37.9976 81.2733 35.3597C87.7188 31.2895 95.2105 38.7812 91.1403 45.2267C88.5024 49.4041 90.7931 54.9344 95.6123 56.0229C103.048 57.7026 103.048 68.2974 95.6123 69.9771C90.7931 71.0656 88.5024 76.5959 91.1403 80.7733C95.2105 87.2188 87.7188 94.7105 81.2733 90.6403C77.0959 88.0024 71.5656 90.2931 70.4771 95.1123C68.7974 102.548 58.2026 102.548 56.5229 95.1123C55.4344 90.2931 49.9041 88.0024 45.7267 90.6403C39.2812 94.7105 31.7895 87.2188 35.8597 80.7733C38.4976 76.5959 36.2069 71.0656 31.3877 69.9771C23.952 68.2974 23.952 57.7026 31.3877 56.0229C36.2069 54.9344 38.4976 49.4041 35.8597 45.2267C31.7895 38.7812 39.2812 31.2895 45.7267 35.3597C49.9041 37.9976 55.4344 35.7069 56.5229 30.8877Z" fill="#6FA521"/>
<path fill-rule="evenodd" clip-rule="evenodd" d="M51.0273 62.6801L54.2253 59.4821L60.6213 65.8781L73.4131 53.0862L76.6111 56.2842L60.6213 72.274L51.0273 62.6801Z" fill="white" stroke="white" stroke-width="4" stroke-linecap="round" stroke-linejoin="round"/>
</svg>
