<svg width="24" height="25" viewBox="0 0 24 25" fill="none" xmlns="http://www.w3.org/2000/svg">
<path d="M21.4133 5.9427C20.7825 6.21416 20.1194 6.40319 19.4402 6.50512C19.7577 6.4507 20.2249 5.8792 20.4109 5.64788C20.6934 5.29895 20.9087 4.90063 21.0459 4.47314C21.0459 4.44139 21.0776 4.39603 21.0459 4.37335C21.0299 4.36462 21.0119 4.36004 20.9937 4.36004C20.9755 4.36004 20.9576 4.36462 20.9416 4.37335C20.2041 4.77268 19.4193 5.07746 18.6057 5.28049C18.5773 5.28915 18.5471 5.28993 18.5184 5.28274C18.4896 5.27554 18.4633 5.26066 18.4424 5.23967C18.3791 5.16425 18.3109 5.09304 18.2383 5.02649C17.9064 4.72915 17.5299 4.48579 17.1225 4.30531C16.5726 4.0797 15.9786 3.98199 15.3853 4.01957C14.8097 4.05592 14.2478 4.21031 13.7344 4.47314C13.2288 4.75023 12.7845 5.12667 12.4281 5.57984C12.0532 6.04627 11.7825 6.58757 11.6343 7.16733C11.5121 7.71881 11.4983 8.28878 11.5935 8.84554C11.5935 8.94079 11.5935 8.95439 11.5119 8.94079C8.27792 8.46454 5.62455 7.31701 3.45649 4.85413C3.36124 4.74528 3.31135 4.74528 3.23424 4.85413C2.29082 6.28741 2.74892 8.55525 3.9282 9.67557C4.08695 9.82525 4.25023 9.97039 4.42259 10.1065C3.8819 10.0681 3.35441 9.92155 2.87138 9.67557C2.78067 9.6166 2.73078 9.64835 2.72624 9.75721C2.71338 9.90813 2.71338 10.0599 2.72624 10.2108C2.82088 10.934 3.10591 11.6192 3.55219 12.1962C3.99847 12.7731 4.58998 13.2212 5.26623 13.4946C5.43108 13.5652 5.60286 13.6184 5.77876 13.6534C5.27821 13.7519 4.76484 13.7672 4.2593 13.6987C4.15045 13.676 4.10963 13.735 4.15045 13.8393C4.81719 15.6536 6.26408 16.207 7.32543 16.5154C7.47057 16.5381 7.61571 16.5381 7.779 16.5743C7.779 16.5743 7.779 16.5743 7.75178 16.6016C7.43882 17.1731 6.17336 17.5586 5.5928 17.7582C4.53311 18.1388 3.40329 18.2843 2.28175 18.1845C2.10485 18.1573 2.06403 18.1618 2.01868 18.1845C1.97332 18.2072 2.01868 18.2571 2.06857 18.3024C2.29535 18.4521 2.52214 18.5837 2.75799 18.7107C3.46014 19.0936 4.20245 19.3979 4.97141 19.6178C8.95374 20.7154 13.435 19.9081 16.424 16.9372C18.7735 14.6059 19.599 11.3901 19.599 8.16972C19.599 8.04726 19.7487 7.97469 19.8349 7.91119C20.4293 7.44804 20.9533 6.90108 21.3906 6.28741C21.4663 6.19593 21.5052 6.07946 21.4995 5.96084C21.4995 5.89281 21.4995 5.90641 21.4133 5.9427Z" fill="white"/>
</svg>
