<svg width="45" height="37" viewBox="0 0 45 37" fill="none" xmlns="http://www.w3.org/2000/svg">
<path d="M29.7602 25.912L22.0936 18.2453M22.0936 18.2453L14.4269 25.912M22.0936 18.2453V35.4953M38.1744 30.4928C40.0438 29.4736 41.5206 27.861 42.3716 25.9093C43.2227 23.9577 43.3996 21.7782 42.8744 19.7148C42.3493 17.6514 41.1519 15.8217 39.4713 14.5144C37.7908 13.2071 35.7227 12.4967 33.5936 12.4953H31.1786C30.5984 10.2513 29.5171 8.1681 28.016 6.40219C26.5148 4.63629 24.6328 3.23367 22.5116 2.29979C20.3903 1.36591 18.0849 0.925061 15.7688 1.0104C13.4526 1.09573 11.1859 1.70503 9.13914 2.79248C7.09235 3.87993 5.31872 5.41724 3.95158 7.28882C2.58444 9.16041 1.65937 11.3176 1.24593 13.5981C0.832485 15.8787 0.94142 18.2233 1.56454 20.4557C2.18767 22.6881 3.30877 24.7502 4.84355 26.487" stroke="#6FA521" stroke-width="2" stroke-linecap="round" stroke-linejoin="round"/>
</svg>
